<?xml version="1.0" encoding="utf-8"?>
<!-- Generator: Adobe Illustrator 22.0.1, SVG Export Plug-In . SVG Version: 6.00 Build 0)  -->
<svg version="1.1" id="Layer_1" xmlns="http://www.w3.org/2000/svg" xmlns:xlink="http://www.w3.org/1999/xlink" x="0px" y="0px"
	 viewBox="0 0 1000 1000" style="enable-background:new 0 0 1000 1000;" xml:space="preserve">
<g>
	<path class="st0" d="M616.3,531.1c26.5,0,50.7,6.5,72.6,19.4c22,12.9,39.4,30.3,52.4,51.9c13,21.7,19.7,45.9,20.3,72.8v147h-19.3
		h-28.2v-37.9c-12.4,9.6-35,24-50.1,29.3c-15.1,5.3-31,8-47.7,8c-26.7,0-51-6.5-73.1-19.6c-22.1-13-39.6-30.5-52.6-52.5
		c-13-22-19.6-46.4-19.6-73.2c0-26.6,6.5-51,19.6-72.9c13-22,30.6-39.5,52.6-52.6C565.3,537.6,589.7,531.1,616.3,531.1z
		 M616.3,774.2c27,0,50.1-9.5,69.2-28.6c19.1-19.1,28.6-42.1,28.6-69.2c0-26.8-9.5-49.8-28.6-69c-19.1-19.2-42.2-28.8-69.2-28.8
		s-50.1,9.6-69.2,28.8c-19.1,19.2-28.6,42.2-28.6,69c0,27,9.5,50.1,28.6,69.2C566.2,764.6,589.3,774.2,616.3,774.2z"/>
	<path class="st0" d="M413.6,711.9c-13.5-22.2-36.9-39.6-59.6-52.2c22.7-13,40.8-30.7,54.5-53.3c1.3-2.2,2.6-4.5,3.8-6.7
		c0.2-0.4,0.4-0.8,0.6-1.2c3.3-6.4,6.1-12.9,8.4-19.6c5.1-14.9,7.6-30.8,7.7-47.5v-0.2h-46.5v0.2c0,15.4-4.1,32.4-11.3,47.3
		c0,0.1-0.1,0.2-0.1,0.3c-0.1,0.1-0.1,0.3-0.2,0.4c-3.2,6.6-7,12.7-11.3,18c-0.6,0.8-1.3,1.7-2,2.4c-0.8,0.9-1.6,1.8-2.5,2.7
		c-16.8,17.3-45.2,29-69.9,30V531.1h-46.6v291.1h46.6V689.8c24.8,1,55.1,10.7,71.9,27.8c16.8,17.1,30.7,44.9,30.7,69.1v35.5h46.5
		v-35.5C434,759.1,427.2,734.2,413.6,711.9z"/>
	<path class="st0" d="M458.6,427.5H379c-0.8,0-1.7,0-2.5,0c-1.3,0-2.6-0.1-3.9-0.2c-1.1-0.1-2.2-0.2-3.3-0.3
		c-47.2-4.9-84-45.4-84-94.6V183.9h-46.8v148.2c0,42.2,18,80.1,46.6,106.2c22.1,20.2,50.5,33.4,81.9,36.1c1.4,0.1,2.7,0.2,4.1,0.3
		c2.7,0.2,5.4,0.3,8.1,0.3h122.1C484.5,461.8,470.2,445.8,458.6,427.5z"/>
	<g>
		<path class="st0" d="M760.2,340.9c-0.6,6.2-1.5,12.3-2.8,18.2c-0.8,3.7-1.8,7.3-2.8,10.9V475h5.7L760.2,340.9L760.2,340.9z"/>
		<path class="st0" d="M740,402.8V475h5.7v-82.6c-0.9,1.8-1.9,3.7-2.8,5.5C741.9,399.5,741,401.2,740,402.8z"/>
		<path class="st0" d="M725.3,423.2V475h5.7v-58.9c-0.9,1.2-1.9,2.4-2.8,3.6C727.3,420.9,726.3,422,725.3,423.2z"/>
		<path class="st0" d="M713.6,435.4c-0.9,0.9-1.9,1.7-2.8,2.6v37h5.7v-42.3C715.5,433.6,714.5,434.5,713.6,435.4z"/>
	</g>
	<g>
		<path class="st0" d="M613,179.2c-81.6,0-147.9,66.3-147.9,147.9C465,408.7,531.4,475,613,475c37.5,0,71.7-14,97.8-37
			c1-0.8,1.9-1.7,2.8-2.6c1-0.9,1.9-1.8,2.8-2.7c3.1-3,6.1-6.2,8.9-9.5c1-1.1,1.9-2.3,2.8-3.4c1-1.2,1.9-2.4,2.8-3.6
			c3.2-4.2,6.2-8.7,8.9-13.3c1-1.6,1.9-3.3,2.8-5c1-1.8,1.9-3.6,2.8-5.5c3.5-7.2,6.5-14.7,8.9-22.4c1.1-3.6,2-7.2,2.8-10.9
			c1.3-5.9,2.3-12,2.8-18.2c0.4-4.5,0.6-9.1,0.6-13.7C760.9,245.5,694.5,179.2,613,179.2z M745.7,378.3c-0.9,2.3-1.8,4.6-2.8,6.8
			c-0.9,2-1.9,4-2.8,6c-2.7,5.3-5.7,10.4-8.9,15.2c-0.9,1.4-1.9,2.7-2.8,4.1c-0.9,1.3-1.9,2.5-2.8,3.8c-2.8,3.6-5.8,7.1-8.9,10.4
			c-0.9,1-1.9,2-2.8,2.9c-0.9,0.9-1.9,1.9-2.8,2.8c-25.5,24.2-59.9,39-97.8,39c-78.4,0-142.2-63.8-142.2-142.2
			c0-78.4,63.8-142.3,142.2-142.3c78.4,0,142.3,63.8,142.3,142.3c0,4.6-0.2,9.2-0.7,13.7C753.3,353.9,750.2,366.5,745.7,378.3z"/>
	</g>
	<g>
		<path class="st0" d="M613,460.5c-73.6,0-133.4-59.8-133.4-133.4S539.4,193.7,613,193.7s133.4,59.8,133.4,133.4
			S686.5,460.5,613,460.5z M613,199.4c-70.4,0-127.7,57.3-127.7,127.7S542.5,454.8,613,454.8s127.7-57.3,127.7-127.7
			S683.4,199.4,613,199.4z"/>
	</g>
	<g>
		<path class="st0" d="M613,446c-65.6,0-118.9-53.3-118.9-118.9S547.4,208.2,613,208.2s118.9,53.3,118.9,118.9S678.5,446,613,446z
			 M613,213.9c-62.4,0-113.2,50.8-113.2,113.2S550.5,440.3,613,440.3s113.2-50.8,113.2-113.2S675.4,213.9,613,213.9z"/>
	</g>
	<g>
		<path class="st0" d="M613,431.5c-57.6,0-104.4-46.8-104.4-104.4S555.4,222.7,613,222.7s104.4,46.8,104.4,104.4
			S670.5,431.5,613,431.5z M613,228.4c-54.4,0-98.7,44.3-98.7,98.7s44.3,98.7,98.7,98.7s98.7-44.3,98.7-98.7S667.4,228.4,613,228.4z
			"/>
	</g>
	<g>
		<g>
			<polygon class="st0" points="613.5,273.8 629.8,257.7 597.2,257.7 			"/>
			<rect x="612.8" y="269.6" class="st0" width="1.3" height="26"/>
			<rect x="608.3" y="295" class="st0" width="10.3" height="1.1"/>
		</g>
		<g>
			<polygon class="st0" points="586.8,280.7 592.8,258.6 564.6,274.9 			"/>
			<rect x="590.5" y="275.3" transform="matrix(0.866 -0.5 0.5 0.866 -64.978 334.2199)" class="st0" width="1.3" height="26"/>
			<rect x="592.4" y="299" transform="matrix(0.866 -0.5 0.5 0.866 -69.7471 338.939)" class="st0" width="10.3" height="1.1"/>
		</g>
		<g>
			<polygon class="st0" points="567.1,300 561.3,277.9 545,306.1 			"/>
			<rect x="574.1" y="291.4" transform="matrix(0.5 -0.866 0.866 0.5 23.7046 649.9414)" class="st0" width="1.3" height="26"/>
			<rect x="580.8" y="310.4" transform="matrix(0.5 -0.866 0.866 0.5 23.6363 662.9025)" class="st0" width="10.3" height="1.1"/>
		</g>
		<g>
			<polygon class="st0" points="559.7,326.6 543.6,310.3 543.6,342.9 			"/>
			
				<rect x="567.9" y="313.6" transform="matrix(5.130658e-11 -1 1 5.130658e-11 241.9111 895.1042)" class="st0" width="1.3" height="26"/>
			
				<rect x="576.3" y="326.1" transform="matrix(4.400841e-11 -1 1 4.400841e-11 254.8039 908.1337)" class="st0" width="10.3" height="1.1"/>
		</g>
		<g>
			<polygon class="st0" points="566.6,353.3 544.5,347.2 560.8,375.5 			"/>
			<rect x="573.6" y="335.9" transform="matrix(-0.5 -0.866 0.866 -0.5 559.1638 1020.61)" class="st0" width="1.3" height="26"/>
			
				<rect x="580.3" y="341.9" transform="matrix(-0.5 -0.866 0.866 -0.5 581.6132 1020.7283)" class="st0" width="10.3" height="1.1"/>
		</g>
		<g>
			<polygon class="st0" points="585.9,373 563.7,378.8 591.9,395.1 			"/>
			<rect x="589.6" y="352.3" transform="matrix(-0.866 -0.5 0.5 -0.866 918.8203 976.8852)" class="st0" width="1.3" height="26"/>
			
				<rect x="591.7" y="353.6" transform="matrix(-0.866 -0.5 0.5 -0.866 936.6188 959.2733)" class="st0" width="10.3" height="1.1"/>
		</g>
		<g>
			<polygon class="st0" points="612.4,380.4 596.1,396.5 628.8,396.5 			"/>
			
				<rect x="611.8" y="358.5" transform="matrix(-1 -1.332544e-10 1.332544e-10 -1 1224.8853 743.1088)" class="st0" width="1.3" height="26"/>
			
				<rect x="607.4" y="358" transform="matrix(-1 -8.801683e-11 8.801683e-11 -1 1225.0219 717.1865)" class="st0" width="10.3" height="1.1"/>
		</g>
		<g>
			<polygon class="st0" points="639.1,373.5 633.1,395.6 661.3,379.3 			"/>
			<rect x="634.1" y="352.8" transform="matrix(-0.866 0.5 -0.5 -0.866 1367.3582 365.3283)" class="st0" width="1.3" height="26"/>
			<rect x="623.2" y="354" transform="matrix(-0.866 0.5 -0.5 -0.866 1349.7462 347.5298)" class="st0" width="10.3" height="1.1"/>
		</g>
		<g>
			<polygon class="st0" points="658.8,354.2 664.6,376.4 680.9,348.1 			"/>
			<rect x="650.6" y="336.8" transform="matrix(-0.5 0.866 -0.866 -0.5 1279.6984 -39.286)" class="st0" width="1.3" height="26"/>
			
				<rect x="634.9" y="342.7" transform="matrix(-0.5 0.866 -0.866 -0.5 1257.249 -39.4043)" class="st0" width="10.3" height="1.1"/>
		</g>
		<g>
			<polygon class="st0" points="666.2,327.6 682.3,343.9 682.3,311.3 			"/>
			
				<rect x="656.8" y="314.6" transform="matrix(-1.054634e-10 1 -1 -1.054634e-10 985.0198 -329.781)" class="st0" width="1.3" height="26"/>
			
				<rect x="639.3" y="327" transform="matrix(-1.336160e-10 1 -1 -1.336160e-10 971.9904 -316.8882)" class="st0" width="10.3" height="1.1"/>
		</g>
		<g>
			<polygon class="st0" points="659.3,300.9 681.4,307 665.1,278.7 			"/>
			<rect x="651.1" y="292.3" transform="matrix(0.5 0.866 -0.866 0.5 590.2723 -411.7262)" class="st0" width="1.3" height="26"/>
			<rect x="635.3" y="311.2" transform="matrix(0.5 0.866 -0.866 0.5 590.204 -398.765)" class="st0" width="10.3" height="1.1"/>
		</g>
		<g>
			<polygon class="st0" points="640,281.2 662.2,275.4 634,259.1 			"/>
			<rect x="635" y="275.9" transform="matrix(0.866 0.5 -0.5 0.866 229.593 -279.1086)" class="st0" width="1.3" height="26"/>
			<rect x="623.9" y="299.5" transform="matrix(0.866 0.5 -0.5 0.866 234.3121 -274.3394)" class="st0" width="10.3" height="1.1"/>
		</g>
	</g>
</g>
</svg>
