<?xml version="1.0" encoding="utf-8"?>
<!-- Generator: Adobe Illustrator 22.0.1, SVG Export Plug-In . SVG Version: 6.00 Build 0)  -->
<svg version="1.1" id="Layer_1" xmlns="http://www.w3.org/2000/svg" xmlns:xlink="http://www.w3.org/1999/xlink" x="0px" y="0px"
	 viewBox="0 0 350 350" style="enable-background:new 0 0 350 350;" xml:space="preserve">
<g>
	<path class="st0" d="M201,76.9c0.1,1,0.3,2.1,0.4,3.2c23.3,5.7,44.4,19.2,59.5,38c15.8,19.7,24.2,43.5,24.2,68.8
		c0,27.9-10.5,54.6-29.5,75c-0.6,0.7-1.3,1.4-2,2h-45.1c1.7-6.4,8.3-38.1-0.3-122.9c-0.2-2.1-0.4-4.2-0.6-6.2
		c0.9,35.4,1.2,92.6-8.2,129.1h-2.9c10.8-41,8.9-108,7.9-144.1l0-0.6c-0.2-7.4-0.4-13.2-0.4-17.2c-0.9-8-1.8-15-2.6-21
		c-0.1-1.1-0.3-2.2-0.4-3.2c-4.2-31.6-6.2-36-6.4-36.3l0-0.1c0,0-1.9-2.3-5.8-3.1c0.2,11.9,0.3,24.2,0.2,37.4c0,1,0,2,0,3
		c-0.3,45-2.8,100.6-12.3,185.3h-2.8c12.5-111.8,12.9-173,12.1-226c-4-0.1-8.4,1.3-13.3,4.1c-1.4,10.6-3.2,23.2-5,35.4
		c-8.6,59.9-20.4,141.9-12.9,186.4h-2.8c-7.5-45.1,4.3-126.9,12.9-186.8c0.9-6.3,1.8-12.5,2.6-18.4c0.8-5.9,1.6-11.4,2.3-16.6
		c-3.5,2.3-10.2,6.9-12.8,10.9l-0.2,0.4c-9.5,53.7-24.6,189.2-11.2,210.5H96.4c-0.6-0.7-1.3-1.3-1.9-2c-19.1-20.4-29.5-47.1-29.5-75
		c0-25.2,8.3-48.9,23.9-68.5c14.9-18.7,35.8-32.2,58.8-38.1c0.2-1.1,0.4-2.2,0.5-3.2c-49.5,12-86.3,56.6-86.3,109.9
		c0,29.8,11.5,56.9,30.4,77.1c20.6,22.2,50.1,36,82.7,36c32.7,0,62.1-13.9,82.8-36c18.8-20.2,30.3-47.3,30.3-77.1
		C288.1,133.5,250.9,88.6,201,76.9z"/>
	<path class="st0" d="M147.7,81.4c-5.1,31.3-8.7,69-9.8,104.6c-0.4,11-0.5,21.2-0.3,30.4c0.2-15,1.1-31.1,2.2-45.4
		c2.4-31.5,6.2-64.4,9.9-90.2c0.2-1.1,0.3-2.1,0.5-3.2h0c1.1-7.5,2.2-14.4,3.2-20.4c-1.4,2.5-2.2,4.4-2.3,5.8l0,0.2
		c-1,4.8-1.9,9.8-2.8,14.9C148,79.2,147.9,80.3,147.7,81.4z"/>
</g>
</svg>
