<?xml version="1.0" encoding="utf-8"?>
<!-- Generator: Adobe Illustrator 22.0.1, SVG Export Plug-In . SVG Version: 6.00 Build 0)  -->
<svg version="1.1" id="Layer_1" xmlns="http://www.w3.org/2000/svg" xmlns:xlink="http://www.w3.org/1999/xlink" x="0px" y="0px"
	 viewBox="0 0 350 350" style="enable-background:new 0 0 350 350;" xml:space="preserve">
<g>
	<path class="st0" d="M187.5,74.6c0.3-1.9,0.6-4.7,0.4-8.4c0-5.1-1.7-9-4.3-9.7l-0.7-0.2v-4.4l-1.8-1.4l2.4-8.8
		c-2.5-1.5-2.5-1.6-2.5-2.2c0-0.1,0-0.8-0.1-1.2l-2.1-1.2l-1.7,1.1v2.3l-2.9,1.6l2.3,8.1l-2.1,2v3.7l-0.3,0.3
		c-0.1,0-5.1,4.5-4.5,8.6c0.2,0.6,0.4,0.8,0.4,0.8l0.4,0.3l0,0.4c0.1,2.2,0.2,5,0.2,7.7c-60.4,2.4-108.6,52-108.6,113
		c0,29.8,11.5,56.9,30.3,77.1c20.6,22.1,50.1,36,82.7,36c32.7,0,62.1-13.9,82.7-36c18.8-20.2,30.4-47.3,30.4-77.1
		C288.1,128.8,244.1,80.8,187.5,74.6z M255.5,262c-0.6,0.7-1.3,1.4-1.9,2h-54.7v-23.5h-43.6v23.5H96.4c-0.7-0.7-1.3-1.4-2-2
		c-19-20.4-29.5-47.1-29.5-75c0-28.6,10.9-55.8,30.8-76.4C115.5,90.1,142,78.2,170.4,77c-0.2,2.8-0.5,5.1-1.3,5.7l-0.3,0.3L153,81.7
		c-1.5,0.9-9,6.2-4.9,16.2c2.9-3.1,5.3-6.5,6.6-9.2c1.8-3.8,15.4-2.6,20.1-2c0.5-1.1,1.8-1.9,3.3-1.9c1.5,0,2.8,0.8,3.3,2
		c2.1-0.2,14.7-1.1,17.9,0.1c6.4,2.2,6.5,7.6,6,12.9c-0.4,4.7,1.3,11.1,2.7,14c1.6-4.7,5.5-17.2,3.5-30.1l-21.3-0.5l-3.6-5.1
		l0.2-0.5c0.2,0,0.3,0,0.5,0.1c26.8,2.9,51.5,15.6,69.6,35.7c18.2,20.2,28.3,46.4,28.3,73.7C285.1,214.9,274.6,241.6,255.5,262z"/>
	<path class="st0" d="M207.7,141.1c0.1-0.2,0.1-0.3,0.2-0.5c-0.1,0-0.2,0-0.3-0.1l-0.8-0.2v-0.1c-2.7-0.6-5.6,0.3-6.6,0.7
		c0.2,0.2,0.3,0.4,0.4,0.6l0.1,0.2l0,0.2c0.6,3.4,0.5,5.9,0.3,7.3c0.9-0.6,1.9-1,3.1-1.1c1.1-0.1,2.2,0.1,3.2,0.6
		c-0.4-1.2-0.7-2.9-0.3-4.9C207.1,142.6,207.4,141.7,207.7,141.1z"/>
	<path class="st0" d="M159.4,143.2c1.2-0.9,3.2-2.2,4.8-3.7c-0.6,0.4-1.5,0.4-2.4,0.1l-0.6-0.2c-0.6-0.2-1.8-0.5-2.4-0.6
		c0.1,2.2,0.2,3.6,0.3,4.5C159.2,143.3,159.3,143.3,159.4,143.2z"/>
	<path class="st0" d="M147.9,126.4c-0.4,0.4-0.8,0.8-1.1,1.4l0.2,2l2.9,2.3c1-1.2,3.1-3.3,6-3.9c-0.7-1.2-0.8-2.7-0.9-3.5l-1.5-0.6
		c-0.5,0.1-1.6,0.3-2.9,0.8h0c0,0,0,0,0,0l0,0C149.7,125.2,148.7,125.7,147.9,126.4L147.9,126.4C148,126.4,148,126.4,147.9,126.4
		L147.9,126.4z"/>
	<path class="st0" d="M180.5,147.2c2-1.3,4-2.7,5.4-4.5c0.6-0.8,1.2-1.7,1.5-2.8c0.2-0.6,0.4-1.3,0.5-2c-6.3-1.6-13.9-2.9-18.5-3.3
		c0,3.9-5.5,7.7-8.9,10.1c-0.7,0.5-1.2,0.9-1.5,1.1c0,0,0,0,0,0c-0.6,0.6-10.1,10.2-4.1,18.4l4.9,5.2l0.2,12.5l-0.5,0.3
		c-5.4,3.1-11.4,7.4-11.6,8.9c0,0,0,0.1,0.1,0.2c1,1.1,5.8,1.8,9.1,1.9c0.3-0.3,0.9-0.8,1.7-1.4c2-1.4,5.4-3.3,10.6-4
		c3.4-0.5,5.4-1.4,6.4-3.1c1.3-2,1.1-5.3-0.6-10.7c-0.9-3-1.6-5.9-1.9-8.6c-0.7-5.5,0-10.2,2-13.7
		C176.4,150,178.4,148.7,180.5,147.2z"/>
	<path class="st0" d="M145.9,127.6L145.9,127.6L145.9,127.6C145.9,127.6,145.9,127.6,145.9,127.6z"/>
	<path class="st0" d="M197.3,179.6C197.3,179.6,197.3,179.6,197.3,179.6c-0.5-0.6-1.8-2.9-0.1-10.4c1.4-6.3,2.6-15,2.9-17.6
		l-1.5-0.6l0.3-0.9c0,0,0.8-2.7,0-7.8c-1.1-1.4-4.6-2.8-9.1-4.1c-0.7,4.6-3.7,7.3-6.7,9.4c-0.5,0.4-1,0.7-1.5,1
		c-1.9,1.3-3.7,2.5-4.6,4c-1.4,2.5-2.1,5.8-2,9.6c0.1,3.3,0.8,7.1,2.1,11.1c1.9,6.1,2,9.7,0.4,12.3c-1.3,2.1-3.8,3.4-7.8,3.9
		c-6.7,1-10.3,4-11.2,4.9v0c-0.1,2.7-1.1,18.3-11.9,25.7c0.5,1.2,0.6,2.1,0.7,3.1c0.3,2.1,0.5,4.2,5.7,9.4l0.1,0.1l3.6,4.7h41
		c0.2-0.1,3.8-1.5,2.7-20.8l0-0.7l0.6-0.3c8.1-3.6,9-7,9.1-10.4C203.1,200.2,197.5,188.7,197.3,179.6z"/>
	<path class="st0" d="M152.6,122.4l-0.9-6.8l1.9-4.1l0.9,1.6c0.3,0.6,1.6,1.3,2.7,1.9c1.9,1,3.8,2.1,4.2,3.8
		c0.4,1.9,1.1,3.3,3.3,4.4c1.3-5.9-1.1-9.3-1.2-9.3l-0.5-0.6l0.8-0.1c0.2,0,17.7-3.1,31.6-0.8c0.2-2.3,0.5-4.7,0.8-7.2l0.5,0.1
		l0.5,0.1c-0.1,0.7-0.2,1.5-0.3,2.2c-0.9,7.3-1.1,13.2,0.3,20.4c0.9,4.3,1.7,8.2,2.3,10.8l0.1,0.7c0,0,0.1,0,0.1,0
		c1.3-0.5,4.2-1.4,7.2-0.8c0.5-6.3,1-7.8,1.1-8l0.2-0.4l0.4-0.1c0.9-0.3,1.8-0.9,1.8-1.2c-0.2-0.3-0.6-0.9-0.9-1.4
		c-1.2-1.8-2-3.1-1.9-4.2l0.1-0.6l0.5-0.2c1.9-0.8,2.7-1.7,3.1-2.2c-1.4-1.4-2.9-2.8-3.4-3.1l-0.3,0l-0.2-0.3
		c-0.6-0.6-1.3-1.8-1.9-3.4c-1.5-3.8-2.6-9.6-2.3-13.7c0.5-5.9-0.1-9.3-4.7-10.9c-2.3-0.8-12.1-0.3-16.5,0c-0.3,0-0.5,0-0.7,0
		c-0.4,1.3-1.8,2.2-3.4,2.2c-1.6,0-2.9-0.9-3.4-2.2c-0.4,0-0.9-0.1-1.4-0.1h0c-7.8-0.8-16.1-0.6-16.9,1.1c-1.4,2.8-3.8,6.2-6.7,9.4
		l0,0c-0.3,0.3-0.5,0.5-0.8,0.8c-0.3,0.3-0.5,0.6-0.8,0.9c-7.1,6.7-11.1,10-12.5,11.1c0.4,0.8,1.5,2.1,4.1,3.1l0.4,0.1l0.2,0.4
		c2.1,4.9,4.4,8.7,5.6,10.6C147.7,123.5,151,122.7,152.6,122.4z"/>
	<path class="st0" d="M199.4,140.4L199.4,140.4C199.4,140.3,199.4,140.4,199.4,140.4C199.4,140.4,199.4,140.4,199.4,140.4z"/>
	<path class="st0" d="M212.1,152.7c-1-0.1-1.8,0.2-2.1,0.6l-0.8,1.1l-0.8-1c-0.7-0.9-1-1.8-1.1-2.3c-0.2-0.1-0.5-0.3-0.7-0.4l0,0
		c-0.7-0.3-1.6-0.6-2.5-0.5c-0.6,0-1.3,0.2-2,0.7h0h0v0l0,0.4c0,0.1-1.4,11-3.1,18.5c-1.3,5.7-0.6,7.9-0.4,8.5
		c1.5,0,2.3-0.1,2.7-0.2c0-1,0-3.4-0.7-5.3l-0.1-0.3l0.1-0.3c0.7-2.8,4-4.9,5.3-5.6v-3.4l0.7-0.2c0.9-0.3,3.6-1.4,4.1-2.9l0.1-0.3
		l0.3-0.2c0.7-0.4,1.3-0.8,1.8-1c2-1,2.3-1.2,1.3-4.2C213.7,153.1,212.7,152.8,212.1,152.7z"/>
	<path class="st0" d="M196.3,127.9c-1-5.2-1.2-9.8-0.9-14.7c-0.2,0-0.4-0.1-0.5-0.1c-12.1-1.8-26.8,0.3-30.1,0.8
		c0.7,1.4,2.1,4.8,0.8,9.9c0,0,0,0,0,0c-0.1,0.4-0.2,0.8-0.4,1.3l0.5-0.2c-0.1,2-2.1,3.3-3,3.9c-0.1,0.1-0.2,0.1-0.2,0.2l-0.1,0.2
		c-0.3,0.4-0.8,0.4-1.2,0.4c-0.5,0-1.5,0-2.9,0.4l-0.4,0.1l-0.1-0.1c-0.9,0-1.8,0.2-2.5,0.6c-0.7,0.3-1.4,0.7-1.9,1.1c0,0,0,0,0,0
		c-1.1,0.8-1.8,1.8-2.1,2.1c0,0.4,0,1.2,0.4,1.7c0.1,0.1,0.3,0.4,1,0.4h0.7l0.2,0.7c0.2,0.6,0.6,1.6,1.3,1.8
		c0.6,0.2,1.5-0.2,2.5-1.1l1.5-1.3l0,0.9c0.9,0,2,0.4,3.1,0.6l0.5,0.1c0.3,0.1,0.5,0.1,0.7,0.1c2.2-0.4,4.7-1.3,4.4-3
		c0-0.1,0-0.1,0-0.2c-0.1-0.4-0.4-0.7-0.9-0.9l-1.5-1.3l2.8,0.1c4.7,0.2,24.5,3.1,31,7.4C198.2,137.4,197.3,133,196.3,127.9z"/>
	<path class="st0" d="M147.4,99.9C147.4,99.9,147.4,99.9,147.4,99.9C147.4,99.9,147.4,99.9,147.4,99.9
		C147.4,99.9,147.4,99.9,147.4,99.9C147.4,99.9,147.4,99.9,147.4,99.9L147.4,99.9C147.4,99.9,147.4,99.9,147.4,99.9L147.4,99.9z"/>
	<path class="st0" d="M147.8,99.6C147.8,99.6,147.8,99.6,147.8,99.6C147.8,99.6,147.8,99.6,147.8,99.6
		C147.8,99.6,147.8,99.6,147.8,99.6C147.7,99.6,147.7,99.6,147.8,99.6C147.7,99.6,147.7,99.6,147.8,99.6
		C147.7,99.6,147.7,99.6,147.8,99.6C147.7,99.6,147.7,99.6,147.8,99.6z"/>
	<path class="st0" d="M178,89.8c1.4,0,2.6-0.9,2.6-2.1c0-1.2-1.1-2.1-2.6-2.1c-1.4,0-2.5,0.9-2.5,2.1
		C175.5,88.9,176.6,89.8,178,89.8z"/>
</g>
</svg>
