<?xml version="1.0" encoding="utf-8"?>
<!-- Generator: Adobe Illustrator 22.0.1, SVG Export Plug-In . SVG Version: 6.00 Build 0)  -->
<svg version="1.1" id="Layer_1" xmlns="http://www.w3.org/2000/svg" xmlns:xlink="http://www.w3.org/1999/xlink" x="0px" y="0px"
	 viewBox="0 0 350 350" style="enable-background:new 0 0 350 350;" xml:space="preserve">
<g>
	<path class="st0" d="M262.6,259.1c16.2-19.6,26-44.7,26-72.1c0-56.4-41.2-103.1-95.1-111.7c-0.7-0.1-1.3-0.2-2-0.3v-2h-32.1v2
		c-0.7,0.1-1.3,0.2-2,0.3c-53.8,8.7-95,55.4-95,111.6c0,27.4,9.8,52.5,26,72.1c0,0,0,0,0,0h0c0.2,0.3,0.4,0.5,0.7,0.8
		c19.1,22.6,46.9,37.6,78.2,39.9c0.1,0,0.1,0,0.2,0c1,0.1,2.1,0.1,3.1,0.2c1.6,0.1,3.3,0.1,4.9,0.1s3.3,0,4.9-0.1
		c1-0.1,2.1-0.1,3.1-0.2c0.1,0,0.1,0,0.2,0c32-2.3,60.4-17.6,79.9-40.7L262.6,259.1C262.6,259.1,262.6,259.1,262.6,259.1z
		 M182.8,75.8h5.5v7.9h-5.5V75.8z M172.6,75.8h5.5v7.9h-5.5V75.8z M162.5,75.8h5.5v7.9h-5.5V75.8z M92.3,259.1
		c-0.3-0.4-0.7-0.8-1-1.1l-0.1-0.1c-0.2-0.2-0.4-0.4-0.5-0.7l0,0l0,0c-16.3-19.7-25.3-44.6-25.3-70.2c0-26.3,9.4-51.8,26.6-71.7
		c17-19.7,40.3-32.8,65.9-37c0.5-0.1,1-0.2,1.5-0.2v10.4l1.7,1.7h28.7l1.7-1.7V78c0.5,0.1,1,0.2,1.6,0.2c25.6,4.1,49,17.2,66,36.9
		c17.2,19.9,26.6,45.4,26.6,71.8c0,25.6-9,50.5-25.3,70.2l0,0l0,0c-0.2,0.2-0.3,0.4-0.5,0.6l0,0.1c-0.3,0.4-0.6,0.8-1,1.1
		c0,0,0,0,0,0h-4.5v-6.4H96.6v6.4L92.3,259.1C92.3,259.1,92.3,259.1,92.3,259.1z"/>
	<rect x="104.4" y="228.3" class="st0" width="141.9" height="21.9"/>
	<rect x="104.4" y="219.5" class="st0" width="141.9" height="6.4"/>
	<path class="st0" d="M183.6,218.3v-17.5h-16.5v17.5h1.9v-9.3c0-3.3,2.7-5.9,5.9-5.9h0.8c3.3,0,5.9,2.7,5.9,5.9v9.3H183.6z"/>
	<polygon class="st0" points="166.1,199.8 184.6,199.8 184.6,218.4 221.7,218.4 221.7,196.5 129,196.5 129,218.4 166.1,218.4 	"/>
	<rect x="129" y="187.6" class="st0" width="92.7" height="6.4"/>
	<path class="st0" d="M175.4,184.7c1.7,0.4,16.3-0.1,16.3-0.1l-3.3-94.1h-26.1l-3.3,94.1C159,184.6,173.6,185,175.4,184.7z
		 M175.4,103.4c2.2,0,3.9,1.8,3.9,3.9c0,2.2-1.8,3.9-3.9,3.9c-2.2,0-3.9-1.8-3.9-3.9C171.4,105.1,173.2,103.4,175.4,103.4z
		 M175.4,119.3c2.2,0,3.9,1.8,3.9,3.9c0,2.2-1.8,3.9-3.9,3.9c-2.2,0-3.9-1.8-3.9-3.9C171.4,121.1,173.2,119.3,175.4,119.3z
		 M175.4,135.3c2.2,0,3.9,1.8,3.9,3.9c0,2.2-1.8,3.9-3.9,3.9c-2.2,0-3.9-1.8-3.9-3.9C171.4,137,173.2,135.3,175.4,135.3z
		 M175.4,151.2c2.2,0,3.9,1.8,3.9,3.9c0,2.2-1.8,3.9-3.9,3.9c-2.2,0-3.9-1.8-3.9-3.9C171.4,153,173.2,151.2,175.4,151.2z
		 M175.4,167.2c2.2,0,3.9,1.8,3.9,3.9c0,2.2-1.8,3.9-3.9,3.9c-2.2,0-3.9-1.8-3.9-3.9C171.4,168.9,173.2,167.2,175.4,167.2z"/>
	<path class="st0" d="M191.6,68.1h-16.2V43.4h28V27.6h-28.7v0h0v40.5h-15.3l-3.6,4.2H195L191.6,68.1z M188.1,34.7l0.8-2.6l0.9,2.6
		h2.8l-2.2,1.6l0.8,2.6l-2.2-1.6l-2.2,1.6l0.8-2.6l-2.2-1.6H188.1z"/>
</g>
</svg>
