<?xml version="1.0" encoding="utf-8"?>
<!-- Generator: Adobe Illustrator 22.0.1, SVG Export Plug-In . SVG Version: 6.00 Build 0)  -->
<svg version="1.1" id="Layer_1" xmlns="http://www.w3.org/2000/svg" xmlns:xlink="http://www.w3.org/1999/xlink" x="0px" y="0px"
	 viewBox="0 0 350 350" style="enable-background:new 0 0 350 350;" xml:space="preserve">
<path class="st0" d="M175,73.9c-1,0-2.1,0-3.1,0c-3.3-12.4-6.7-24.7-10.1-37.9h-4.9c0.7,2.4,4.7,16.6,9.5,38.2c0.2,1,0.4,2,0.6,3
	c6.9,32,15,78.6,16.4,126.2l0,0.4l-0.2,0.3c-0.2,0.3-17.1,25.5-37.3,43.1l-0.7,0.6c0,5.4-0.1,10.9-0.1,16.3H96.4
	c-0.6-0.7-1.3-1.3-1.9-2c-19.1-20.4-29.5-47.1-29.5-75c0-25,8.6-49.5,24.3-69c15.3-18.9,36.6-32.4,60.1-38
	c-2.2,40.3-2.5,88.2-2.8,141.4c0,0.1-0.1,0.2-0.1,0.4c0,0.1,0,0.2,0.1,0.4v0.3c0,1.6,0,3.2,0,4.9c0,0.1,0,0.1,0,0.2
	c0,0.1,0,0.1,0,0.2c0,5.2-0.1,10.5-0.1,15.9c7.3-6.6,14.1-14.2,19.7-20.9c0.2-0.1,0.3-0.3,0.4-0.5c7.8-9.4,13.2-17.3,14.4-18.9
	c-1.4-47.4-9.5-93.9-16.4-125.6c-0.2-1-0.4-2-0.6-3c-0.5-2.4-1.1-4.7-1.6-6.9c0,0,0,0,0,0c0-0.2-0.1-0.3-0.1-0.5
	c-3.7-15.9-6.6-26.6-7.5-29.7h-1.9c-1.4,12.1-2.4,25.3-3.2,39.4C99.3,88.4,61.9,133.3,61.9,187c0,29.8,11.5,56.9,30.4,77.1
	c20.6,22.2,50.1,36,82.7,36s62.1-13.9,82.8-36c18.8-20.2,30.3-47.3,30.3-77.1C288.1,124.5,237.5,73.9,175,73.9z M148.3,238.9
	c0-1.6,0-3.2,0-4.8h4.8C151.6,235.7,150,237.3,148.3,238.9z M155,232.1h-6.6c0-1.3,0-2.5,0-3.8h10.1
	C157.3,229.6,156.2,230.9,155,232.1z M160.2,226.4L160.2,226.4l-11.8,0c0-1.3,0-2.5,0-3.8h15C162.4,223.9,161.3,225.1,160.2,226.4z
	 M165.1,220.7h-16.6c0-1.3,0-2.5,0-3.8h19.6C167.1,218.1,166.1,219.4,165.1,220.7z M169.6,215C169.6,215,169.6,215,169.6,215
	l-21.1,0c0-1.3,0-2.5,0-3.8h24C171.6,212.4,170.7,213.7,169.6,215z M174,209.3c-0.1,0-0.2-0.1-0.3-0.1h-25.2c0-1.3,0-2.5,0-3.8h28.2
	C176,206.6,175,207.9,174,209.3z M178.9,202.5c-0.2,0.3-0.4,0.7-0.8,1.1h-29.6c0-1.3,0-2.5,0-3.8h30.2
	C178.8,200.7,178.9,201.6,178.9,202.5z M178.7,197.8h-30.1c0-1.3,0-2.5,0-3.8h29.9C178.6,195.3,178.7,196.6,178.7,197.8z
	 M178.5,192.1h-29.8c0-1.3,0-2.5,0-3.8h29.6C178.3,189.6,178.4,190.9,178.5,192.1z M178.1,186.4h-29.4c0-1.3,0-2.5,0-3.8h29.2
	C178,183.9,178.1,185.2,178.1,186.4z M177.8,180.7h-29c0-1.3,0-2.5,0-3.8h28.7C177.6,178.2,177.7,179.5,177.8,180.7z M177.3,175
	h-28.5c0-1.3,0-2.5,0-3.8H177C177.1,172.5,177.2,173.7,177.3,175z M176.8,169.3h-28c0-1.3,0-2.5,0.1-3.8h27.6
	C176.6,166.8,176.7,168,176.8,169.3z M176.3,163.6h-27.4c0-1.3,0-2.5,0-3.8h26.9C176,161.1,176.2,162.3,176.3,163.6z M175.7,157.9
	H149c0-1.3,0-2.6,0.1-3.8c0.1,0,0.2,0.1,0.3,0.1h25.9C175.4,155.4,175.6,156.6,175.7,157.9z M175,152.2h-25.7c-0.1,0-0.2,0-0.3,0.1
	c0-1.3,0-2.6,0-3.8h25.5C174.7,149.6,174.9,150.9,175,152.2z M174.4,146.4h-25.2c0-1.3,0-2.5,0.1-3.8c0.1,0,0.1,0,0.1,0h24.5
	C174,143.9,174.2,145.2,174.4,146.4z M173.6,140.7h-24.3c0,0-0.1,0-0.1,0c0-1.3,0.1-2.5,0.1-3.8c0,0,0,0,0,0h23.7
	C173.3,138.2,173.4,139.5,173.6,140.7z M172.8,135h-23.5c0,0,0,0,0,0c0-1.3,0-2.5,0.1-3.8h22.8C172.5,132.5,172.6,133.8,172.8,135z
	 M154.1,42.8c1.4,5,3.5,13.2,5.9,23.7h-7.9C152.6,58.2,153.3,50.3,154.1,42.8z M151.9,68.4h8.5c0.3,1.2,0.6,2.5,0.9,3.8h-9.6
	C151.8,70.9,151.9,69.7,151.9,68.4z M151.5,76.4c0.1-0.8,0.1-1.5,0.1-2.2h10.1c0,0.2,0.1,0.3,0.1,0.5c0.2,1,0.4,1.9,0.6,2.9
	c0,0.1,0.1,0.2,0.1,0.3h-11.2C151.4,77.4,151.4,76.9,151.5,76.4z M151.3,79.9H163c0.3,1.2,0.5,2.5,0.8,3.8h-12.7
	C151.1,82.4,151.2,81.1,151.3,79.9z M151,85.6h13.2c0.3,1.2,0.5,2.5,0.8,3.8h-14.2C150.8,88.1,150.9,86.8,151,85.6z M150.7,91.3
	h14.6c0.3,1.2,0.5,2.5,0.7,3.8h-15.5C150.6,93.8,150.6,92.5,150.7,91.3z M150.5,97h16c0.2,1.3,0.5,2.5,0.7,3.8h-16.8
	C150.4,99.5,150.4,98.2,150.5,97z M150.2,102.7h17.3c0.2,1.2,0.5,2.5,0.7,3.8h-18.1C150.1,105.2,150.2,104,150.2,102.7z M150,108.4
	h18.5c0.2,1.2,0.4,2.5,0.7,3.8h-19.3C150,110.9,150,109.7,150,108.4z M149.9,114.1h19.7c0.2,1.2,0.4,2.5,0.6,3.8h-20.4
	C149.8,116.6,149.8,115.4,149.9,114.1z M149.7,119.8h20.8c0.2,1.3,0.4,2.5,0.6,3.8h-21.5C149.6,122.3,149.7,121.1,149.7,119.8z
	 M149.6,125.5h21.8c0.2,1.3,0.4,2.5,0.6,3.8h-22.5C149.5,128,149.5,126.8,149.6,125.5z M255.6,262c-0.6,0.7-1.3,1.4-2,2h-59.2
	c-0.2-43.6-2.3-77-5.6-104.7V97.8c8.5-0.4,16.1-1.4,16.1-3.8c0-3.3-14.3-4-25.5-4c-1.2,0-2.3,0-3.4,0c-1.1-4.4-2.2-8.8-3.4-13.1
	c0.7,0,1.4,0,2.3,0c29.4,0,57.1,11.5,77.9,32.3c20.8,20.8,32.2,48.4,32.2,77.8C285.1,214.9,274.6,241.6,255.6,262z"/>
</svg>
