<svg id="Layer_1" data-name="Layer 1" xmlns="http://www.w3.org/2000/svg" viewBox="0 0 350 350"><defs><style>.cls-1{fill:#f15c61;}</style></defs><polygon class="cls-1" points="281.98 224.01 281.98 224.01 281.98 224.01 281.98 224.01"/><path class="cls-1" d="M175,73.62A113.26,113.26,0,0,0,68,224a114.8,114.8,0,0,0,6.26,14.62,113.76,113.76,0,0,0,36.54,41.53,112.65,112.65,0,0,0,43.6,18.07,114,114,0,0,0,41.35,0,113,113,0,0,0,45-19.17A113.24,113.24,0,0,0,175,73.62ZM95.33,217.89a1.72,1.72,0,0,1-1.72,1.71h-.26a1.72,1.72,0,0,1-1.71-1.71v-10a1.72,1.72,0,0,1,1.71-1.72h.26a1.72,1.72,0,0,1,1.72,1.72Zm15.49,58.25A110.22,110.22,0,0,1,97.26,264.6q-.53-.53-1-1.05V237.08a7.29,7.29,0,1,1,14.58,0Zm-11.3-60.36v-10a1.72,1.72,0,0,1,1.72-1.72h1.11a1.71,1.71,0,0,1,1.71,1.72v10a1.71,1.71,0,0,1-1.71,1.71h-1.11A1.72,1.72,0,0,1,99.52,215.78Zm14-2.51a1.71,1.71,0,0,1-1.71,1.72H109.6a1.72,1.72,0,0,1-1.72-1.72v-10a1.72,1.72,0,0,1,1.72-1.71h2.23a1.71,1.71,0,0,1,1.71,1.71Zm0-16.42a.94.94,0,0,1-.65.89l-20.06,6a.93.93,0,0,1-1.19-.89V186.48a.92.92,0,0,1,.66-.89l20.06-6a.92.92,0,0,1,1.18.89Zm0-22.84a1,1,0,0,1-.7,1l-19.93,5.92a1,1,0,0,1-1.27-.94v-4.31a1,1,0,0,1,.7-.94l19.94-5.93a1,1,0,0,1,1.26,1Zm10.39,36.59h-1.6a1.84,1.84,0,0,1-1.84-1.84V199a1.84,1.84,0,0,1,1.84-1.84h1.6a1.84,1.84,0,0,1,1.85,1.84v9.75A1.84,1.84,0,0,1,123.93,210.6ZM139,290.8a106.62,106.62,0,0,1-14.59-6.26V227.46a7.3,7.3,0,0,1,12.46-5.15,7.22,7.22,0,0,1,2.13,5.15ZM128.8,206.47v-9.75a1.84,1.84,0,0,1,1.85-1.85h1.6a1.84,1.84,0,0,1,1.84,1.85v9.75a1.85,1.85,0,0,1-1.84,1.84h-1.6A1.84,1.84,0,0,1,128.8,206.47Zm13.6-2.3a1.84,1.84,0,0,1-1.85,1.84H139a1.84,1.84,0,0,1-1.84-1.84v-9.75a1.84,1.84,0,0,1,1.84-1.85h1.6a1.85,1.85,0,0,1,1.85,1.85Zm0-15.89a.92.92,0,0,1-.66.88l-20.06,6a.92.92,0,0,1-1.19-.89V177.9a.92.92,0,0,1,.66-.88l20.06-6a.93.93,0,0,1,1.19.88Zm0-22.85a1,1,0,0,1-.71.95l-19.93,5.93a1,1,0,0,1-1.27-.95v-4.3a1,1,0,0,1,.71-.95l19.92-5.93a1,1,0,0,1,1.28.95Zm11.22,39.35H152a1.85,1.85,0,0,1-1.85-1.84V192.28a1.84,1.84,0,0,1,1.85-1.84h1.6a1.84,1.84,0,0,1,1.84,1.84v10.66A1.85,1.85,0,0,1,153.62,204.78Zm42.15,90.07a111.42,111.42,0,0,1-41.35,0V233.39c0-8.89,9.25-16.11,20.67-16.11s20.68,7.22,20.68,16.11Zm-36.7-91.91V192.28a1.84,1.84,0,0,1,1.84-1.84h1.6a1.84,1.84,0,0,1,1.85,1.84v10.66a1.85,1.85,0,0,1-1.85,1.84h-1.6A1.85,1.85,0,0,1,159.07,202.94Zm8.89,0V192.28a1.84,1.84,0,0,1,1.85-1.84h1.6a1.84,1.84,0,0,1,1.84,1.84v10.66a1.84,1.84,0,0,1-1.84,1.84h-1.6A1.85,1.85,0,0,1,168,202.94Zm8.9,0V192.28a1.84,1.84,0,0,1,1.84-1.84h1.6a1.84,1.84,0,0,1,1.85,1.84v10.66a1.85,1.85,0,0,1-1.85,1.84h-1.6A1.85,1.85,0,0,1,176.86,202.94Zm8.89,0V192.28a1.84,1.84,0,0,1,1.85-1.84h1.6a1.84,1.84,0,0,1,1.85,1.84v10.66a1.85,1.85,0,0,1-1.85,1.84h-1.6A1.85,1.85,0,0,1,185.75,202.94Zm14.19,0a1.85,1.85,0,0,1-1.84,1.84h-1.6a1.85,1.85,0,0,1-1.85-1.84V192.28a1.84,1.84,0,0,1,1.85-1.84h1.6a1.84,1.84,0,0,1,1.84,1.84Zm.16-16.57a.9.9,0,0,1-.9.9H150.45a.89.89,0,0,1-.89-.9V170.09a.9.9,0,0,1,.89-.91H199.2a.9.9,0,0,1,.9.91Zm0-22.6a.9.9,0,0,1-.9.9H150.45a.89.89,0,0,1-.89-.9v-4.53a.9.9,0,0,1,.89-.9H199.2a.9.9,0,0,1,.9.9ZM172,126c0-1.91,2.9-2.85,3.34-4.23.43,1.38,3.33,2.32,3.33,4.23,0,4.14-3,3.9-3,3.9h-.86C174.21,129.91,172,129.58,172,126ZM210.8,206.6l-1.6,0a1.85,1.85,0,0,1-1.89-1.79l-.26-9.75a1.83,1.83,0,0,1,1.79-1.89l1.61-.05a1.86,1.86,0,0,1,1.89,1.8l.26,9.75A1.85,1.85,0,0,1,210.8,206.6Zm-3.09-17.44a.92.92,0,0,1-.66-.88V171.93a.93.93,0,0,1,1.19-.88l20,6a.92.92,0,0,1,.66.88v16.34a.92.92,0,0,1-1.18.89Zm-.66-23.73v-4.3a1,1,0,0,1,1.27-.95l19.93,5.93a1,1,0,0,1,.7.95v4.3a1,1,0,0,1-1.26.95l-19.94-5.93A1,1,0,0,1,207.05,165.43ZM221,206.78a1.84,1.84,0,0,1-1.79,1.89l-1.61,0a1.83,1.83,0,0,1-1.88-1.79l-.26-9.75a1.84,1.84,0,0,1,1.79-1.89l1.6,0A1.83,1.83,0,0,1,220.7,197Zm6.23,76.89a106.33,106.33,0,0,1-14.58,6.55V227.46a7.29,7.29,0,0,1,7.29-7.29,7.3,7.3,0,0,1,7.29,7.29Zm.34-72.92-1.6,0A1.85,1.85,0,0,1,224,209l-.26-9.75a1.84,1.84,0,0,1,1.8-1.89l1.6-.05a1.86,1.86,0,0,1,1.89,1.8l.26,9.74A1.85,1.85,0,0,1,227.53,210.75ZM239.85,215h-2.23a1.72,1.72,0,0,1-1.72-1.72v-10a1.72,1.72,0,0,1,1.72-1.71h2.23a1.72,1.72,0,0,1,1.72,1.71v10A1.73,1.73,0,0,1,239.85,215Zm15.55,46.84c-.86.94-1.75,1.86-2.66,2.77a109.64,109.64,0,0,1-11.93,10.34V237.08a7.3,7.3,0,0,1,14.59,0Zm-10-46v-10a1.72,1.72,0,0,1,1.72-1.72h1.11a1.72,1.72,0,0,1,1.72,1.72v10a1.72,1.72,0,0,1-1.72,1.71H247.1A1.72,1.72,0,0,1,245.38,215.78Zm12.43,2.11a1.72,1.72,0,0,1-1.72,1.71h-.25a1.72,1.72,0,0,1-1.72-1.71v-10a1.72,1.72,0,0,1,1.72-1.72h.25a1.72,1.72,0,0,1,1.72,1.72Zm0-15.07a.93.93,0,0,1-1.19.89l-20.06-6a.93.93,0,0,1-.66-.89V180.51a.93.93,0,0,1,1.19-.89l20.06,6a.92.92,0,0,1,.66.89Zm0-22.88a1,1,0,0,1-1.28.94L236.61,175a1,1,0,0,1-.71-1v-4.3a1,1,0,0,1,1.27-1l19.93,5.93a1,1,0,0,1,.71.94Zm7.25,27.73v-27a38,38,0,0,1,5.43-2.33c5.95,2.36,8.34-2.11,8-5.27h0a2.24,2.24,0,1,0-2.63,2.44,1.81,1.81,0,0,1-2.79,1.35c-.24,0-.51,0-.79-.08-8.23-3.14-23.81-18-29.47-31.08l.2,0a5.54,5.54,0,0,0,5.13-7.62h0a2.24,2.24,0,1,0-1.83,3.09,1.72,1.72,0,0,1-1.53,2.08c-26.39-.13-37.39-9.73-40.31-12.91a7.16,7.16,0,0,0,.37-5.51h0a2.24,2.24,0,1,0-1.83,3.08,1.91,1.91,0,0,1-.72,1.88,80.7,80.7,0,0,1-19.55,3.29,10.28,10.28,0,0,1-3.79-2.8c2.1-1.44,1.56-4.26,1.56-4.26,1.82-3.31-1-5-1-6.8-.72,1.4.36,2,0,3.89-.76-2.81-3.78-3.48-4.12-7v.14c0-.09,0-.14,0-.14-.34,3.53-3.35,4.2-4.11,7-.37-1.89.71-2.49,0-3.88,0,1.84-2.82,3.49-1,6.79,0,0-.51,2.68,1.41,4.15l-.12-.06a8,8,0,0,1-3.84,3A103,103,0,0,1,157.3,132c-.31-.06-4.93-1-7.31-1.55l-.22,0-.59-.17a2,2,0,0,1-1.55-2.31A2.22,2.22,0,0,0,150,126.3a2.24,2.24,0,0,0-4.21-1.49h0a7,7,0,0,0,.17,5.06c-2.21,2.59-12.82,13.08-40.15,13.35a1.71,1.71,0,0,1-1.49-2.07,2.24,2.24,0,1,0-1.83-3.09h0a5.54,5.54,0,0,0,3.94,7.48,3.46,3.46,0,0,0,.79.16c-5.85,13.54-22.29,28.93-30.27,31.36a1.73,1.73,0,0,1-2.18-1.55,2.24,2.24,0,1,0-2.63-2.44h0c-.32,3.11,2,7.48,7.73,5.38a37.94,37.94,0,0,1,5.12,2.22v27l-16.89,4.79a109.94,109.94,0,1,1,213.9,0Z"/></svg>