<?xml version="1.0" encoding="utf-8"?>
<!-- Generator: Adobe Illustrator 22.0.1, SVG Export Plug-In . SVG Version: 6.00 Build 0)  -->
<svg version="1.1" id="Layer_1" xmlns="http://www.w3.org/2000/svg" xmlns:xlink="http://www.w3.org/1999/xlink" x="0px" y="0px"
	 viewBox="0 0 350 350" style="enable-background:new 0 0 350 350;" xml:space="preserve">
<g>
	<path class="st0" d="M195,75.7l-1.8-15.6h-0.1c0.7,0,1.3-0.4,1.6-1.1c0.5-0.3,0.9-0.9,0.9-1.5h-2.2l-16.4-5.1V45H176v-4.3h-0.5
		v-4.9h-0.8v4.9h-0.5V45h-1.1v7.3l-16.4,5.1h-2.2c0,0.7,0.4,1.2,0.9,1.5c0.3,0.6,0.9,1.1,1.6,1.1H157l-1.8,15.6
		c-53,9.4-93.3,55.7-93.3,111.4c0,29.8,11.5,56.9,30.3,77.1c20.6,22.2,50.1,36,82.8,36c32.7,0,62.1-13.9,82.8-36
		c18.8-20.2,30.3-47.3,30.3-77.1C288.1,131.3,247.9,85.1,195,75.7z M187.7,65.7c1.4,0,2.6,1.2,2.6,2.6c0,1.4-1.2,2.6-2.6,2.6
		c-1.4,0-2.6-1.2-2.6-2.6C185.1,66.8,186.3,65.7,187.7,65.7z M182.4,76.8h-0.9l-0.1-2.7l-0.5-14h0.8l0.6,14.1L182.4,76.8z
		 M176.6,53.1l5,4.4h-1.1l-4.2-4.4H176.6z M175.1,64.9c1.7,0,3,1.4,3,3v8.8H172V68C172,66.3,173.4,64.9,175.1,64.9z M173.5,53.1h0.3
		l-4.2,4.4h-1.1L173.5,53.1z M167.9,74.1l0.6-14h0.8l-0.5,14l-0.1,2.7h-0.9L167.9,74.1z M162.4,65.7c1.4,0,2.6,1.2,2.6,2.6
		c0,1.4-1.2,2.6-2.6,2.6s-2.6-1.2-2.6-2.6C159.8,66.8,161,65.7,162.4,65.7z M145.5,250.2c-3.4,0-6.1-2.7-6.1-6.1
		c0-3.4,2.7-6.1,6.1-6.1s6.1,2.7,6.1,6.1C151.6,247.4,148.9,250.2,145.5,250.2z M182.2,264.1H168v-20.7c0-3.9,3.2-7.1,7.1-7.1
		c3.9,0,7.1,3.2,7.1,7.1V264.1z M204.6,250.2c-3.4,0-6.1-2.7-6.1-6.1c0-3.4,2.7-6.1,6.1-6.1c3.4,0,6.1,2.7,6.1,6.1
		C210.7,247.4,208,250.2,204.6,250.2z M255.6,262c-0.6,0.7-1.3,1.4-1.9,2h-31.8l-4.5-39.1h-26.9l1.6,39.1H190l-1.4-39.1h-27
		l-1.4,39.1h-2.1l1.6-39.1h-26.9l-4.5,39.1H96.4c-0.6-0.7-1.3-1.3-2-2c-19-20.4-29.5-47.1-29.5-75c0-26,9.3-51.3,26-71.1
		c16.4-19.3,39-32.5,63.7-37.1h40.8c24.8,4.6,47.3,17.8,63.7,37.1c16.8,19.8,26,45.1,26,71.1C285.1,214.9,274.6,241.6,255.6,262z"/>
	<path class="st0" d="M146,127h58.2c1.5,0,2.7-1.2,2.7-2.7h-5l-2.6-22.2h-15.4l0.9,22.2h-1.2l-0.8-22.2h-15.5l-0.8,22.2h-1.2
		l0.9-22.2h-15.4l-2.6,22.2h-5C143.3,125.8,144.5,127,146,127z M192,109.6c1.9,0,3.5,1.6,3.5,3.5c0,1.9-1.6,3.5-3.5,3.5
		c-1.9,0-3.5-1.6-3.5-3.5C188.5,111.2,190.1,109.6,192,109.6z M171,112.7c0-2.2,1.8-4.1,4.1-4.1s4.1,1.8,4.1,4.1v11.7H171V112.7z
		 M158.1,109.6c1.9,0,3.5,1.6,3.5,3.5c0,1.9-1.6,3.5-3.5,3.5s-3.5-1.6-3.5-3.5C154.6,111.2,156.2,109.6,158.1,109.6z"/>
	<path class="st0" d="M142.1,156.3H208c1.7,0,3.1-1.4,3.1-3.1h-5.1l-2.9-24.8h-17.8l1,24.8h-1.4l-0.9-24.8h-17.9l-0.9,24.8h-1.4
		l1-24.8h-17.8l-2.9,24.8h-5.1C139.1,154.9,140.4,156.3,142.1,156.3z M194.7,137c2.2,0,4,1.8,4,4s-1.8,4-4,4c-2.2,0-4-1.8-4-4
		S192.4,137,194.7,137z M170.4,140.6c0-2.6,2.1-4.7,4.7-4.7s4.7,2.1,4.7,4.7v12.6h-9.4V140.6z M155.5,137c2.2,0,4,1.8,4,4
		s-1.8,4-4,4c-2.2,0-4-1.8-4-4S153.3,137,155.5,137z"/>
	<path class="st0" d="M209.8,189.8h-22.1l1.2,29h-1.7l-1.1-29H164l-1.1,29h-1.7l1.2-29h-22.1l-3.4,29h-9.9c0,2.2,1.8,4.1,4.1,4.1
		H219c2.2,0,4.1-1.8,4.1-4.1h-9.9L209.8,189.8z M150.7,210.6c-2.8,0-5-2.2-5-5s2.2-5,5-5c2.8,0,5,2.2,5,5S153.5,210.6,150.7,210.6z
		 M180.9,218.8h-11.7V205c0-3.2,2.6-5.8,5.8-5.8c3.2,0,5.8,2.6,5.8,5.8V218.8z M199.4,210.6c-2.8,0-5-2.2-5-5s2.2-5,5-5
		c2.8,0,5,2.2,5,5S202.2,210.6,199.4,210.6z"/>
	<path class="st0" d="M149.9,100.9h50.4c1.3,0,2.3-1,2.3-2.3h-4.2l-2.2-18.8h-13.4l0.8,18.8h-1l-0.7-18.8h-13.5l-0.7,18.8h-1
		l0.8-18.8h-13.4l-2.2,18.8h-4.2C147.5,99.9,148.6,100.9,149.9,100.9z M189.9,86.3c1.7,0,3,1.4,3,3c0,1.7-1.4,3-3,3
		c-1.7,0-3-1.4-3-3C186.8,87.7,188.2,86.3,189.9,86.3z M171.5,89c0-2,1.6-3.5,3.5-3.5s3.5,1.6,3.5,3.5v9.6h-7.1V89z M160.3,86.3
		c1.7,0,3,1.4,3,3c0,1.7-1.4,3-3,3c-1.7,0-3-1.4-3-3C157.2,87.7,158.6,86.3,160.3,86.3z"/>
	<path class="st0" d="M138.9,188.2h72.3c1.9,0,3.4-1.5,3.4-3.4h-4.7l-3.1-27h-20.2l1.1,27h-1.6l-1-27H165l-1,27h-1.6l1.1-27h-20.2
		l-3.1,27h-4.7C135.6,186.7,137.1,188.2,138.9,188.2z M197.2,167.6c2.5,0,4.6,2,4.6,4.6c0,2.5-2,4.6-4.6,4.6c-2.5,0-4.6-2-4.6-4.6
		C192.7,169.6,194.7,167.6,197.2,167.6z M169.7,171.6c0-2.9,2.4-5.3,5.3-5.3s5.3,2.4,5.3,5.3v13.2h-10.6V171.6z M152.9,167.6
		c2.5,0,4.6,2,4.6,4.6c0,2.5-2,4.6-4.6,4.6c-2.5,0-4.6-2-4.6-4.6C148.3,169.6,150.4,167.6,152.9,167.6z"/>
</g>
</svg>
