<?xml version="1.0" encoding="utf-8"?>
<!-- Generator: Adobe Illustrator 22.0.1, SVG Export Plug-In . SVG Version: 6.00 Build 0)  -->
<svg version="1.1" id="Layer_1" xmlns="http://www.w3.org/2000/svg" xmlns:xlink="http://www.w3.org/1999/xlink" x="0px" y="0px"
	 viewBox="0 0 350 350" style="enable-background:new 0 0 350 350;" xml:space="preserve">
<path class="st0" d="M205.6,78.1v-23h-52.2V76C101.3,86,61.9,131.9,61.9,187c0,29.6,11.4,56.6,30,76.8c20.7,22.3,50.2,36.3,83,36.3
	c32.8,0,62.4-14,83-36.3c18.7-20.2,30-47.1,30-76.8C288.1,135.1,253.2,91.5,205.6,78.1z M168,74.1h4.3v14H168V74.1z M110.6,221.1
	h-9.2V212h9.2V221.1z M110.7,206.9h-9.3v-9.1h9.3V206.9z M101.4,192.7v-9.1h9.2v9.1H101.4z M110.7,178.4h-9.3v-9.1h9.3V178.4z
	 M124.8,221.2h-9.3c0-2.8-0.1-5.3,0.1-7.8c0-0.5,0.9-1.4,1.4-1.5c2.6-0.1,5.1-0.1,7.9-0.1V221.2z M117,183.4
	c2.6-0.1,5.1-0.1,7.8-0.1v9.3h-9.3c0-2.7-0.1-5.4,0.1-8C115.6,184.2,116.5,183.5,117,183.4z M115.7,178.5v-9.3h9.2v9.3H115.7z
	 M124.9,207h-9.1v-9.2h9.1V207z M129.9,178.5v-9.2h9.2v9.2H129.9z M129.9,197.8h9.1v9.2h-9.1V197.8z M139.2,221.2H130V212h9.2V221.2
	z M139.2,192.6h-9.3v-9.1h9.3V192.6z M148.6,226.2v-66.5H91.9v99.6c-17.5-20-27-45.6-27-72.3c0-52.5,37.2-97.8,88.5-108v102.4
	c0,14.9,0,29.9,0.1,44.8H148.6z M168,93.3h4.4v9.1H168V93.3z M172.2,173.7H168v-9.1h4.2V173.7z M172.3,178.8v9.2H168v-9.2H172.3z
	 M168,121.7h4.3v9.3H168V121.7z M168,116.7v-9.2h4.3v9.2H168z M172.3,216.5H168v-9.2h4.3V216.5z M172.4,202.2H168v-9.1h4.3V202.2z
	 M172.4,159.4H168v-9.1h4.3V159.4z M172.4,145.1H168V136h4.4V145.1z M191.2,145.2H187v-9.1h4.2V145.2z M191.3,150.3v9.3H187v-9.3
	H191.3z M191.3,164.6v9.1H187v-9.1H191.3z M187.1,74.2h4.3v14h-4.3V74.2z M191.3,107.5v9.2H187v-9.2H191.3z M187,93.1h4.3v9.2H187
	V93.1z M187,121.7h4.3v9.3H187V121.7z M187,178.7h4.3v9.2H187V178.7z M177.5,74.2h4.3v14h-4.3V74.2z M177.5,116.6v-9.1h4.3v9.1
	H177.5z M181.8,121.7v9.3h-4.3v-9.3H181.8z M177.5,93.3h4.3v9.2h-4.3V93.3z M177.5,136h4.3v9.1h-4.3V136z M177.4,150.3h4.3v9.2h-4.3
	V150.3z M181.7,164.5v9.1h-4.3v-9.1H181.7z M177.4,178.8h4.3v9.2h-4.3V178.8z M177.5,193h4.3v9.1h-4.3V193z M181.9,216.5h-4.4v-9.2
	h4.4V216.5z M191.2,216.5H187v-9.2h4.2V216.5z M191.4,202.1H187v-9.1h4.4V202.1z M210.6,131.2c0,0.8-0.1,1.3-0.1,1.8
	c0,31.1,0,62.1,0,93.2h-4.9v-145c22.3,6.5,42.4,20.2,56.7,38.7c14.9,19.4,22.8,42.5,22.8,67c0,26.7-9.6,52.2-27,72.3v-100
	c0-6.1,0-12.2,0-18.3v-9.8H210.6z"/>
</svg>
