<?xml version="1.0" encoding="utf-8"?>
<!-- Generator: Adobe Illustrator 22.0.1, SVG Export Plug-In . SVG Version: 6.00 Build 0)  -->
<svg version="1.1" id="Layer_1" xmlns="http://www.w3.org/2000/svg" xmlns:xlink="http://www.w3.org/1999/xlink" x="0px" y="0px"
	 viewBox="0 0 350 350" style="enable-background:new 0 0 350 350;" xml:space="preserve">
<g>
	<path class="st0" d="M212.5,80.3V68.4l-1.5,0.9l-2.2,1.3l0,0l0,0c-0.8,0.5-3.9,2.5-7.9,6.3c-0.8,0.8-1.7,1.6-2.5,2.5
		c-0.5,0.5-1,1.1-1.6,1.7c-0.1-0.7-0.1-1.4-0.2-2c-0.1-1.1-0.3-2.1-0.4-3.2c-3.5-21.5-16-35.5-20.2-35.5c-3.2,0-8.2,5.1-12.8,13
		c-2.5,4.3-6.4,12.4-8.3,22.4c-0.2,1-0.4,2.1-0.5,3.2c-0.1,0.5-0.1,0.9-0.2,1.4c-0.4-0.4-0.8-0.8-1.2-1.1c0,0,0,0,0,0
		c-1-0.9-1.9-1.7-2.8-2.5c-3.9-3.2-6.9-4.4-7.1-4.5l-2.1-0.9l-1.4-0.6v1.5l0,7.4C94.4,94.4,61.9,136.9,61.9,187
		c0,29.8,11.5,56.9,30.3,77.1c20.6,22.2,50.1,36,82.8,36c32.7,0,62.1-13.9,82.8-36c18.8-20.2,30.3-47.3,30.3-77.1
		C288.1,137.7,256.5,95.7,212.5,80.3z M119.7,264.1H96.4c-0.7-0.7-1.3-1.3-2-2c-19-20.4-29.5-47.1-29.5-75
		c0-23.6,7.4-46.2,21.3-65.1c13.5-18.3,31.9-31.8,53.3-39.1l-0.1,52.6v0.3c-0.2,1.9-0.3,3.8-0.4,5.7c-9.1-9.2-16.3-10.1-16.6-10.1
		l-1.7-0.2l-1.1-0.2V264.1z M229.5,264H120.7V131.9l1.7,0.2c0.4,0.1,8.2,1.2,17.6,11.5c0.1-2.9,0.3-5.7,0.5-8.4h0l0.1-52.9v-3.2
		l0-7.1l2.1,0.9c0.2,0.1,2.8,1.2,6.2,3.9c0.9,0.7,1.9,1.5,2.9,2.4c1,0.9,2.1,2,3.2,3.2c0.1-1.3,0.2-2.6,0.4-3.9
		c0.1-1.1,0.3-2.1,0.5-3.1c3.6-18.7,15.1-34.2,19.9-34.2c3.3,0,15.5,13.3,19.1,34.3c0.2,1,0.3,2.1,0.5,3.1c0.2,1.5,0.3,3.1,0.4,4.7
		c1.2-1.4,2.4-2.7,3.6-3.9c0.9-0.9,1.8-1.7,2.6-2.5c4.2-3.8,7.2-5.7,7.3-5.7l2.2-1.3v13v60.3c4.8-4.7,10.1-8.4,15.8-11.1l2.1-1V264z
		 M255.6,262c-0.6,0.7-1.3,1.4-1.9,2h-23.2V129.7l-1.4,0.7l-2.1,1c-5.1,2.4-10,5.7-14.4,9.7V83.5c43.5,15.7,72.6,57.2,72.6,103.5
		C285.1,214.9,274.6,241.6,255.6,262z"/>
	<path class="st0" d="M145.6,111.2c0.8-2.4,1.7-4.7,2.6-6.8c0.9-2.1,1.8-4,2.8-5.9c1.2-2.2,2.4-4.3,3.6-6.3c0.6-1,1.2-1.9,1.9-2.8
		c-4.2-6.1-8.8-9.8-11.8-11.7c-0.4-0.3-0.8-0.5-1.2-0.7l0,41.4c0.4-1.5,0.8-3,1.3-4.5C145,113,145.3,112.1,145.6,111.2z"/>
	<path class="st0" d="M146,151.3c1,1.5,2.1,3.2,3.1,5c1.3-1.8,2.5-3.5,3.7-5c1.2-1.6,2.5-3,3.6-4.4v0h0
		c0.3-27.9,16.4-37.1,17.1-37.5l0.6-0.3l0.7,0.3c0,0,0.1,0,0.2,0.1c0.1,0.1,0.3,0.1,0.5,0.2c0.2,0.1,0.4,0.2,0.6,0.3
		c0.3,0.2,0.7,0.4,1.2,0.6c0.1,0.1,0.3,0.2,0.4,0.3c0.2,0.1,0.5,0.3,0.8,0.5c0.1,0.1,0.3,0.2,0.4,0.3c0.4,0.3,0.9,0.6,1.3,0.9
		c2.5-8.9,6.2-16.3,10.2-22.2v0c-1-1.3-2-2.4-2.9-3.5c-0.5-0.5-0.9-1.1-1.4-1.6c-0.9-1-1.7-1.9-2.5-2.8c-1.2-1.3-2.3-2.4-3.3-3.3
		c-2.6-2.5-4.5-4-5.4-4.7c-1.2,0.8-3.9,2.8-7.1,5.9c-1.2,1.2-2.5,2.5-3.9,4.1c-9.4,10.8-21.1,30.6-21.2,62.6c0.5,0.7,1,1.3,1.6,2
		C145,149.8,145.5,150.6,146,151.3z"/>
	<path class="st0" d="M168.1,76.3c0.4-0.4,0.9-0.8,1.3-1.1c1.8-1.6,3.3-2.6,4.2-3.2c0.2-0.1,0.3-0.2,0.4-0.3
		c0.2-0.2,0.4-0.2,0.4-0.3l0.8-0.4l0.8,0.5c0,0,0.2,0.1,0.4,0.2c0.6,0.4,1.8,1.3,3.6,2.9c0.3,0.3,0.7,0.6,1.1,1
		c0.5,0.5,1.1,1,1.7,1.6c0.4,0.4,0.9,0.9,1.4,1.4c0.9,0.9,1.9,2,3,3.2c1.6,1.8,3.4,3.8,5.3,6.2c0.2-0.3,0.4-0.5,0.6-0.8
		c0-2.4-0.1-4.6-0.4-6.8c0-0.2,0-0.3-0.1-0.5c-0.1-1.3-0.3-2.5-0.5-3.8c0-0.2-0.1-0.5-0.1-0.7c-0.3-1.8-0.7-3.5-1.2-5.2
		c-0.1-0.4-0.2-0.7-0.3-1.1c-0.3-0.9-0.5-1.7-0.8-2.6c-0.1-0.4-0.3-0.8-0.4-1.2c-0.5-1.3-0.9-2.6-1.5-3.7c-0.9-2.1-1.9-4.1-2.9-5.9
		c-0.2-0.4-0.4-0.7-0.6-1.1c-0.7-1.3-1.5-2.4-2.2-3.5c-2.8-4-5.3-6.3-6.3-6.8c-0.4,0.1-1,0.4-1.7,1.1c-0.3,0.3-0.7,0.6-1.1,1.1
		c-0.4,0.4-0.8,0.9-1.3,1.5c-0.5,0.5-0.9,1.1-1.4,1.8c-0.4,0.6-0.8,1.1-1.3,1.8c-0.8,1.2-1.7,2.6-2.5,4.1c-0.3,0.4-0.5,0.9-0.8,1.4
		c-1,1.9-2,3.9-2.9,6.1c-0.7,1.6-1.3,3.4-1.9,5.2c-0.4,1.2-0.8,2.4-1.1,3.7c-0.2,0.6-0.3,1.3-0.5,1.9c-0.9,3.9-1.4,8-1.5,12.2v0
		c0.2,0.3,0.4,0.6,0.6,0.9C161.9,82.2,165.3,78.7,168.1,76.3z"/>
	<path class="st0" d="M184,196.3c0.5-1.8,1-3.6,1.5-5.4s1.1-3.5,1.6-5.2c1.1-3.4,2.3-6.7,3.6-9.8c1.2-3,2.5-5.8,3.8-8.5
		c0.7-1.3,1.4-2.7,2.1-3.9c0.7-1.3,1.4-2.5,2.1-3.8c-2.2-3.6-4.5-6.8-6.9-9.7c-3.6-4.3-7.2-7.8-10.2-10.4c-3-2.6-5.4-4.3-6.6-5.1
		c-0.4,0.2-0.9,0.6-1.5,1c-0.3,0.2-0.6,0.4-1,0.7c-1.4,1-3.3,2.5-5.4,4.4c-1.1,0.9-2.2,2-3.4,3.2c-0.6,0.6-1.2,1.2-1.8,1.9
		c-3.8,3.9-7.9,8.9-12.1,15.2c-2.9,4.4-6,9.7-9,16c-0.4,0.8-0.7,1.6-1.1,2.4c-1.3,2.9-2.6,6.1-3.9,9.5c-0.8,2.2-1.6,4.5-2.4,6.8
		c-1.2,3.7-2.4,7.7-3.4,11.9c-0.1,0.5-0.3,1.1-0.4,1.6c-0.5,2-0.9,4.1-1.4,6.2c-1.7,8.4-3,17.6-3.8,27.7c-0.4,5.8-0.7,11.8-0.7,18.2
		h21.6h0c0.3-53.4,27.8-71.6,29-72.4l0.3-0.2l0.5-0.3l0.6,0.3l0.2,0.1C176,188.8,179.9,191.1,184,196.3z"/>
	<path class="st0" d="M140,171.5c0.5-1,1-1.9,1.5-2.8c1-1.9,2.1-3.7,3.1-5.4c0.9-1.5,1.8-2.9,2.7-4.2c-1.5-2.7-3-5.1-4.5-7.2
		c-0.9-1.3-1.8-2.5-2.7-3.5c-0.6-0.7-1.2-1.4-1.8-2.1c-0.3-0.3-0.6-0.6-0.9-0.9c-5.4-5.8-10.2-8.4-13-9.5c-0.3-0.1-0.6-0.2-0.8-0.3
		v87.8c1.5-9.5,3.5-18,5.9-25.7C132.6,187.5,136.2,178.8,140,171.5z"/>
	<path class="st0" d="M183.9,111.2c-0.5,1.7-1,3.5-1.4,5.3c-0.2,0.9-0.4,1.8-0.6,2.8c-0.9,4.7-1.5,9.9-1.5,15.4c0,0,0,0,0,0
		c3.4,2.7,8.4,7,13.3,12.9c0.1,0.2,0.3,0.4,0.4,0.5c0.8,1,1.7,2,2.5,3.1c1.4,1.8,2.7,3.7,4,5.7h0c2.5-3.8,5.2-7.3,8-10.4V75.5
		c-1.3,1-3.1,2.4-5.2,4.3c-0.7,0.6-1.4,1.3-2.1,2.1c-0.7,0.8-1.5,1.6-2.3,2.4c-2.7,3-5.5,6.7-8.2,11.2
		C188.1,100,185.7,105.2,183.9,111.2z"/>
	<path class="st0" d="M211.7,147.5c-14.3,15.1-24.3,39.8-29.7,73.2c-2,12.3-3.4,25.8-4.1,40.4h27.5c0-0.9,0-1.8,0.1-2.6
		c0.1-2.6,0.3-5.1,0.6-7.5c0.1-0.8,0.2-1.6,0.3-2.4c0.5-3.1,1.1-6.1,1.9-8.8c0.2-0.7,0.4-1.4,0.6-2c1-3.4,2.2-6.4,3.5-9.2
		c1.6-3.3,3.3-6.3,5-8.7c0.9-1.2,1.7-2.4,2.6-3.4c0.3-0.3,0.6-0.7,0.9-1c2-2.2,3.9-3.7,5.6-4.6V136
		C221.1,138.9,216.2,142.7,211.7,147.5z"/>
</g>
</svg>
