<svg id="Layer_1" data-name="Layer 1" xmlns="http://www.w3.org/2000/svg" viewBox="0 0 350 350"><defs><style>.cls-1{fill:#f15c61;}</style></defs><path class="cls-1" d="M175.26,73.61a113.25,113.25,0,0,0-.53,226.5H175a113.25,113.25,0,0,0,.27-226.5Zm78,190.49-.68.69a109.93,109.93,0,0,1-155.48-.37l-.31-.32a109.95,109.95,0,1,1,156.47,0Z"/><path class="cls-1" d="M199.67,146.61a6.21,6.21,0,0,0-6.22-6.22h-36.9a6.22,6.22,0,0,0-6.22,6.22v9h49.34Z"/><path class="cls-1" d="M212.56,236.94V170.55h3.91V159.83H133.53v10.72h3.91v66.39l-20.11,32.28,20.11-4.37h4.89V233.11h27.78v31.74h9.78V233.11h27.78v31.74h4.89l20.11,4.37Zm-42.45-66.39v25.52H142.33V170.55ZM142.33,230.2V199h27.78V230.2Zm65.34,0H179.89V199h27.78Zm-27.78-34.13V170.55h27.78v25.52Z"/><path class="cls-1" d="M158.28,136.92h36.91V115.09h0a20.32,20.32,0,0,0-16-17.64V94.74a4.19,4.19,0,0,0-8.38,0v2.71a20.29,20.29,0,0,0-16,17.64h0v21.83h3.47ZM186,118.57h5.76v5.7H186Zm0,9.17h5.76v5.71H186Zm-3.47,5.71h-5.75v-5.71h5.75Zm0-9.18h-5.75v-5.7h5.75Zm-15-5.7h5.75v5.7h-5.75Zm0,9.17h5.75v5.71h-5.75Zm-9.23-9.17H164v5.7h-5.76Zm0,9.17H164v5.71h-5.76Z"/><path class="cls-1" d="M253.23,264.1l-.68.69a109.93,109.93,0,0,1-155.48-.37l-.31-.32Z"/><rect class="cls-1" x="174.5" y="57.09" width="1" height="41.32"/></svg>