<svg width="47" height="66" viewBox="0 0 47 66" fill="none" xmlns="http://www.w3.org/2000/svg">
<path fill-rule="evenodd" clip-rule="evenodd" d="M44.3294 14.224C45.4873 17.0195 46.0833 20.0158 46.0833 23.0417C46.0835 27.4354 44.8222 31.7369 42.4493 35.4348H42.4724L23.0417 65.8333L3.61096 35.4348H3.63729C1.34629 31.8535 0 27.6072 0 23.0417C0 20.0158 0.59599 17.0195 1.75394 14.224C2.91189 11.4285 4.60913 8.88836 6.74875 6.74875C8.88836 4.60913 11.4285 2.91189 14.224 1.75394C17.0195 0.59599 20.0158 0 23.0417 0C26.0675 0 29.0638 0.59599 31.8593 1.75394C34.6549 2.91189 37.195 4.60913 39.3346 6.74875C41.4742 8.88836 43.1714 11.4285 44.3294 14.224ZM22.686 6.41666C22.686 16.3503 14.766 24.4167 4.90199 24.4167H4.54199C14.406 24.4167 22.326 32.483 22.398 42.4167C22.398 32.483 30.318 24.4167 40.182 24.4167H40.542C30.678 24.4167 22.758 16.3503 22.686 6.41666Z" fill="white"/>
</svg>
