<?xml version="1.0" encoding="utf-8"?>
<!-- Generator: Adobe Illustrator 22.0.1, SVG Export Plug-In . SVG Version: 6.00 Build 0)  -->
<svg version="1.1" id="Layer_1" xmlns="http://www.w3.org/2000/svg" xmlns:xlink="http://www.w3.org/1999/xlink" x="0px" y="0px"
	 viewBox="0 0 10 10" style="enable-background:new 0 0 10 10;" xml:space="preserve">
<g>
	<path class="st1" d="M5,1.4C5,3.4,3.6,5,1.8,5H1.7C3.5,5,5,6.6,5,8.6C5,6.6,6.4,5,8.2,5h0.1C6.5,5,5,3.4,5,1.4z"/>
	<path class="st1" d="M5,0C2.2,0,0,2.2,0,5s2.2,5,5,5s5-2.2,5-5S7.8,0,5,0z M5,9.4c-2.4,0-4.4-2-4.4-4.4c0-2.4,2-4.4,4.4-4.4
		c2.4,0,4.4,2,4.4,4.4C9.4,7.4,7.4,9.4,5,9.4z"/>
</g>
</svg>
