<svg width="279" height="74" viewBox="0 0 279 74" fill="none" xmlns="http://www.w3.org/2000/svg">
<path d="M279 2.4183V0H0V2.4183C0.967347 2.4183 1.93469 3.38562 1.93469 4.35294C1.93469 5.32026 0.967347 6.28758 0 6.28758V10.1569C0.967347 10.1569 1.93469 11.1242 1.93469 12.0915C1.93469 13.5425 0.967347 14.5098 0 14.5098V18.3791C0.967347 18.3791 1.93469 19.3464 1.93469 20.3137C1.93469 21.281 0.967347 22.2484 0 22.2484V26.1176C0.967347 26.1176 1.93469 27.085 1.93469 28.0523C1.93469 29.0196 0.967347 29.9869 0 29.9869V31.4379V33.8562C0.967347 33.8562 1.93469 34.8235 1.93469 35.7909C1.93469 36.7582 0.967347 37.7255 0 37.7255V40.1438V41.5948C0.967347 41.5948 1.93469 42.5621 1.93469 43.5294C1.93469 44.4967 0.967347 45.4641 0 45.4641V49.3333C0.967347 49.3333 1.93469 50.3007 1.93469 51.268C1.93469 52.2353 0.967347 53.2026 0 53.2026V57.0719C0.967347 57.0719 1.93469 58.0392 1.93469 59.0065C1.93469 59.9739 0.967347 60.9412 0 60.9412V67.7124C0.967347 67.7124 1.93469 68.6797 1.93469 69.6471C1.93469 70.6144 0.967347 71.5817 0 71.5817V74H279V71.5817C278.033 71.5817 277.065 70.6144 277.065 69.6471C277.065 68.6797 278.033 67.7124 279 67.7124V63.8431C278.033 63.8431 277.065 62.8758 277.065 61.9085C277.065 60.9412 278.033 59.9739 279 59.9739V56.1046C278.033 56.1046 277.065 55.1373 277.065 54.1699C277.065 53.2026 278.033 52.2353 279 52.2353V47.3987C278.033 47.3987 277.065 46.4314 277.065 45.4641C277.065 44.4967 278.033 43.5294 279 43.5294V41.5948V39.1765C278.033 39.1765 277.065 38.2091 277.065 37.2418C277.065 36.2745 278.033 35.3072 279 35.3072V32.4052V30.9542C278.033 30.9542 277.065 29.9869 277.065 29.0196C277.065 28.0523 278.033 27.085 279 27.085V22.732C278.033 22.732 277.065 21.7647 277.065 20.7974C277.065 19.8301 278.033 18.8627 279 18.8627V14.5098C278.033 14.5098 277.065 13.5425 277.065 12.5752C277.065 11.6078 278.033 10.6405 279 10.6405V6.28758C278.033 6.28758 277.065 5.32026 277.065 4.35294C277.065 3.38562 278.033 2.4183 279 2.4183Z" fill="#FF5A5F"/>
</svg>
