<svg width="123" height="123" viewBox="0 0 123 123" fill="none" xmlns="http://www.w3.org/2000/svg">
<path d="M76.8743 64.0591C85.3656 55.5678 85.3656 41.8008 76.8743 33.3096C68.3831 24.8183 54.616 24.8183 46.1248 33.3096C37.6335 41.8008 37.6335 55.5678 46.1248 64.0591C54.616 72.5503 68.3831 72.5503 76.8743 64.0591Z" fill="#C4C4C4"/>
<path d="M61.5 74.0232C44.3301 74.0232 29.7801 85.2393 24.7793 100.748C34.3874 109.74 47.3014 115.247 61.5 115.247C75.7014 115.247 88.6153 109.74 98.2234 100.745C93.2198 85.2393 78.6698 74.0232 61.5 74.0232Z" fill="#C4C4C4"/>
<path d="M61.5 0C27.5342 0 0 27.5342 0 61.5C0 95.4658 27.5342 123 61.5 123C95.4658 123 123 95.4658 123 61.5C123 27.5342 95.4658 0 61.5 0ZM102.204 102.204C96.9163 107.491 90.7601 111.643 83.904 114.542C76.8089 117.541 69.2725 119.065 61.5 119.065C53.7275 119.065 46.1882 117.544 39.096 114.542C32.2427 111.643 26.0865 107.491 20.7961 102.204C15.5085 96.9163 11.3566 90.7601 8.45843 83.904C5.45623 76.8118 3.93546 69.2725 3.93546 61.5C3.93546 53.7275 5.45623 46.1882 8.45843 39.096C11.3566 32.2427 15.5085 26.0865 20.7961 20.7961C26.0837 15.5085 32.2399 11.3566 39.096 8.45843C46.1882 5.45623 53.7275 3.93546 61.5 3.93546C69.2725 3.93546 76.8118 5.45623 83.904 8.45843C90.7573 11.3566 96.9135 15.5085 102.204 20.7961C107.491 26.0837 111.643 32.2399 114.542 39.096C117.541 46.1911 119.065 53.7275 119.065 61.5C119.065 69.2725 117.544 76.8118 114.542 83.904C111.643 90.7601 107.491 96.9163 102.204 102.204Z" fill="#C4C4C4"/>
</svg>
