<?xml version="1.0" encoding="UTF-8"?>
<svg width="28px" height="28px" viewBox="0 0 28 28" version="1.1" xmlns="http://www.w3.org/2000/svg" xmlns:xlink="http://www.w3.org/1999/xlink">
    <title>Group 2</title>
    <g id="Listing-App-Designs" stroke="none" stroke-width="1" fill="none" fill-rule="evenodd">
        <g id="detail---bar" transform="translate(-20.000000, -286.000000)">
            <g id="Top-header-image" transform="translate(0.000000, -11.000000)">
                <g id="Group-2" transform="translate(20.000000, 297.000000)">
                    <circle id="bg" fill="#D63447" cx="14" cy="14" r="14"></circle>
                    <g id="mdi:glass-flute" transform="translate(1.000000, 1.000000)">
                        <rect id="ViewBox" x="0" y="0" width="26" height="26"></rect>
                        <path d="M8,5 L18,5 C17.5875,7.4 17.1625,9.8 16.4375,11.264 C15.7125,12.736 14.6625,13.264 14.15,14.664 C13.625,16.064 13.625,18.336 14.35,19.4 C15.0875,20.464 16.5375,20.336 17.275,20.4 C18,20.464 18,20.736 18,21 L8,21 C8,20.736 8,20.464 8.725,20.4 C9.4625,20.336 10.9125,20.464 11.65,19.4 C12.375,18.336 12.375,16.064 11.85,14.664 C11.3375,13.264 10.2875,12.736 9.5625,11.264 C8.8375,9.8 8.4125,7.4 8,5 M10.2222222,5.94117647 C10.3,6.91058824 10.3888889,7.88941176 10.4888889,8.76470588 L14.4,8.76470588 C14.5,7.88941176 14.5888889,6.91058824 14.6666667,5.94117647 L10.2222222,5.94117647 Z" id="Shape" fill="#FFFFFF" fill-rule="nonzero"></path>
                    </g>
                </g>
            </g>
        </g>
    </g>
</svg>