<svg width="20" height="20" viewBox="0 0 20 20" fill="none" xmlns="http://www.w3.org/2000/svg">
<path d="M18.9 5.8C18.8 5.8 18.8 5.9 18.7 5.9C19.3 7.1 19.6 8.5 19.6 9.9C19.6 15.2 15.3 19.6 9.9 19.6C4.6 19.6 0.2 15.3 0.2 9.9C0.2 4.6 4.5 0.2 9.9 0.2C11.6 0.2 13.2 0.6 14.6 1.4C14.6 1.3 14.7 1.3 14.7 1.2C13.3 0.4 11.6 0 9.9 0C4.4 0.1 0 4.5 0 10C0 15.5 4.4 19.9 9.9 19.9C15.3 19.9 19.8 15.5 19.8 10C19.8 8.5 19.5 7.1 18.9 5.8Z" fill="#9699A0"/>
<path d="M16.8004 10.7C16.7004 11.3 14.6004 11.9 13.3004 13.1C13.2004 13.2 12.3004 14.1 12.2004 14.3C11.3004 15.4 10.9004 16.3 10.5004 17.3C10.4004 17.4 10.3004 17.4 10.2004 17.3C9.70039 16.3 8.70039 14.6 7.30039 13.1C6.10039 11.9 4.00039 10.9 3.10039 10.5C3.00039 10.4 3.00039 10.3 3.10039 10.2C3.80039 9.9 5.00039 9.1 5.30039 8.9C5.40039 8.9 5.40039 8.8 5.50039 8.8C5.50039 8.8 5.50039 8.8 5.60039 8.8C7.30039 9.6 8.60039 10.9 9.50039 11.8C9.70039 12 9.80039 12.2 9.90039 12.3C9.90039 12.3 9.90039 12.3 10.0004 12.4C10.2004 12.6 10.4004 12.8 10.5004 13L10.6004 13.1C10.7004 13.1 10.8004 13.1 10.8004 13C11.0004 12.5 11.3004 12.1 11.7004 11.7C12.2004 11.2 12.8004 10.9 13.6004 10.6C13.7004 10.6 14.2004 10.4 14.8004 10.4C15.4004 10.3 15.8004 10.3 16.1004 10.3C16.5004 10.3 16.7004 10.3 16.9004 10.4C16.8004 10.4 16.8004 10.6 16.8004 10.7Z" fill="#9699A0"/>
<path d="M16.3008 9.6C16.3008 9.7 16.2008 9.7 16.1008 9.7C16.0008 9.7 15.4008 9.6 15.0008 9.6C14.5008 9.6 14.0008 9.7 13.6008 9.8C13.5008 9.8 13.3008 9.9 13.1008 9.9C12.7008 9.9 12.5008 9.9 12.4008 9.9C11.9008 9.8 11.3008 9.3 11.0008 9.2C11.0008 9.2 10.8008 9.1 10.7008 9.1H10.6008H10.5008C10.5008 9.1 10.4008 9.2 10.5008 9.2C10.5008 9.2 11.5008 10.1 11.7008 10.3C11.7008 10.4 11.7008 10.5 11.7008 10.6C11.5008 10.8 10.8008 11.6 10.7008 11.8C10.6008 11.9 10.5008 11.9 10.5008 11.8C9.10078 10.3 7.10078 9 6.00078 8.5C5.90078 8.5 5.90078 8.3 6.00078 8.2L7.30078 7C7.80078 7 9.00078 8 9.50078 8.5C9.60078 8.6 9.80078 8.5 9.80078 8.3L9.60078 7.3C9.50078 7.1 9.40078 6.8 9.40078 6.6V6.3V6.2C9.40078 6 9.40078 5.7 9.40078 5.3C9.40078 5.2 9.40078 5 9.40078 5C9.40078 4.6 9.40078 4.4 9.50078 4.3C9.60078 4 10.0008 3.3 10.3008 2.8C10.3008 2.7 10.4008 2.7 10.5008 2.7C10.6008 2.7 10.6008 2.7 10.6008 2.8C10.9008 3.4 11.1008 3.9 11.4008 4.6C11.4008 4.7 11.5008 4.8 11.5008 4.9C11.5008 5.2 11.5008 5.4 11.5008 5.5C11.5008 5.8 11.5008 6 11.4008 6.2C11.3008 6.9 11.2008 7.2 11.4008 7.6C11.4008 7.7 11.5008 7.7 11.5008 7.7C11.5008 7.7 11.5008 7.7 11.6008 7.7C12.3008 7.8 14.1008 8.3 15.0008 8.6C15.3008 8.7 15.9008 9 16.3008 9.6Z" fill="#9699A0"/>
<path d="M20.0004 3.3C19.2004 3.3 18.4004 3.6 17.9004 4.1C17.8004 4.2 17.8004 4.2 17.7004 4.3C17.2004 4.8 16.9004 5.6 16.9004 6.3C16.9004 4.6 15.6004 3.3 13.9004 3.2C14.7004 3.2 15.4004 2.9 16.0004 2.4C16.1004 2.3 16.1004 2.3 16.2004 2.2C16.7004 1.8 17.0004 1.1 17.0004 0.300003C17.0004 1.9 18.3004 3.3 20.0004 3.3Z" fill="#9699A0"/>
</svg>
