<?xml version="1.0" encoding="UTF-8"?>
<svg width="18px" height="15px" viewBox="0 0 18 15" version="1.1" xmlns="http://www.w3.org/2000/svg" xmlns:xlink="http://www.w3.org/1999/xlink">
    <title>icon</title>
    <g id="Listing-App-Designs" stroke="none" stroke-width="1" fill="none" fill-rule="evenodd">
        <g id="detail---karaoke" transform="translate(-297.000000, -334.000000)" fill="#FFFFFF" fill-rule="nonzero">
            <g id="375-tag" transform="translate(286.000000, 325.000000)">
                <g id="icon" transform="translate(11.000000, 9.000000)">
                    <path d="M15.9230769,15 L2.07692308,15 C0.929870135,15 0,14.0842188 0,12.9545455 L0,2.04545455 C0,0.915781194 0.929870135,0 2.07692308,0 L15.9230769,0 C17.0701299,0 18,0.915781194 18,2.04545455 L18,12.9545455 C18,14.0842188 17.0701299,15 15.9230769,15 Z M2.07692308,1.36363636 C1.6945721,1.36363636 1.38461538,1.66889676 1.38461538,2.04545455 L1.38461538,12.9545455 C1.38461538,13.3311032 1.6945721,13.6363636 2.07692308,13.6363636 L15.9230769,13.6363636 C16.3054279,13.6363636 16.6153846,13.3311032 16.6153846,12.9545455 L16.6153846,2.04545455 C16.6153846,1.66889676 16.3054279,1.36363636 15.9230769,1.36363636 L2.07692308,1.36363636 Z" id="Shape"></path>
                    <path d="M12.4615385,6.81818182 C11.3144855,6.81818182 10.3846154,5.90240062 10.3846154,4.77272727 C10.3846154,3.64305392 11.3144855,2.72727273 12.4615385,2.72727273 C13.6085914,2.72727273 14.5384615,3.64305392 14.5384615,4.77272727 C14.5384615,5.31521555 14.3196435,5.83548491 13.9301449,6.21908205 C13.5406462,6.60267919 13.0123727,6.81818182 12.4615385,6.81818182 Z M12.4615385,4.09090909 C12.0791875,4.09090909 11.7692308,4.39616949 11.7692308,4.77272727 C11.7692308,5.14928506 12.0791875,5.45454545 12.4615385,5.45454545 C12.8438894,5.45454545 13.1538462,5.14928506 13.1538462,4.77272727 C13.1538462,4.39616949 12.8438894,4.09090909 12.4615385,4.09090909 Z" id="Shape"></path>
                    <path d="M2.07692308,15 C1.94426892,14.9996614 1.81450634,14.9617958 1.70307692,14.8909091 C1.38237732,14.6872433 1.28948425,14.2664095 1.49538462,13.95 L5.80846154,7.39090909 C6.18872346,6.81223078 6.83935091,6.46108912 7.53923077,6.45681804 L7.53923077,6.45681804 C8.23513972,6.45656229 8.8849304,6.79957301 9.27,7.37045455 L13.7146154,13.9431818 C13.8835934,14.2534269 13.7849435,14.6393612 13.4869533,14.8338327 C13.1889631,15.0283043 12.7896316,14.9673578 12.5653846,14.6931818 L8.11384615,8.12727273 C7.98647297,7.93678281 7.77082091,7.82163453 7.53923077,7.82045455 L7.53923077,7.82045455 C7.30631451,7.82314062 7.09038282,7.94100038 6.96461538,8.13409091 L2.65846154,14.6863636 C2.53135696,14.8814728 2.31230221,14.9996138 2.07692308,15 Z" id="Path"></path>
                </g>
            </g>
        </g>
    </g>
</svg>