<?xml version="1.0" encoding="UTF-8"?>
<svg width="28px" height="28px" viewBox="0 0 28 28" version="1.1" xmlns="http://www.w3.org/2000/svg" xmlns:xlink="http://www.w3.org/1999/xlink">
    <title>Group 2</title>
    <g id="Listing-App-Designs" stroke="none" stroke-width="1" fill="none" fill-rule="evenodd">
        <g id="detail---karaoke" transform="translate(-20.000000, -288.000000)">
            <g id="Group-2" transform="translate(20.000000, 288.000000)">
                <circle id="bg" fill="#D63447" cx="14" cy="14" r="14"></circle>
                <g id="mdi:microphone-variant" transform="translate(7.000000, 7.000000)">
                    <rect id="ViewBox" x="0" y="0" width="14" height="14"></rect>
                    <path d="M5.25,1.75 C6.53866442,1.75 7.58333333,2.79466892 7.58333333,4.08333333 L2.91666667,4.08333333 C2.91666667,2.79466892 3.96133558,1.75 5.25,1.75 M6.90666667,5.72833333 L6.41666667,10.5 L5.83333333,10.5 L5.83333333,11.0833333 C5.83333333,11.7276655 6.35566779,12.25 7,12.25 C7.64433221,12.25 8.16666667,11.7276655 8.16666667,11.0833333 L8.16666667,8.16666667 C8.16666667,6.87800225 9.21133558,5.83333333 10.5,5.83333333 L11.6666667,5.83333333 L11.0833333,6.41666667 L11.6666667,7 L10.5,7 C9.85566779,7 9.33333333,7.52233446 9.33333333,8.16666667 L9.33333333,11.0833333 C9.33333333,12.3719977 8.28866442,13.4166667 7,13.4166667 C5.71133558,13.4166667 4.66666667,12.3719977 4.66666667,11.0833333 L4.66666667,10.5 L4.08333333,10.5 L3.59333333,5.72833333 C3.3075,5.43666667 3.0975,5.075 2.9925,4.66666667 L7.5075,4.66666667 C7.4025,5.075 7.1925,5.43666667 6.90666667,5.72833333 M5.25,6.41666667 C4.9278339,6.41666667 4.66666667,6.6778339 4.66666667,7 C4.66666667,7.3221661 4.9278339,7.58333333 5.25,7.58333333 C5.5721661,7.58333333 5.83333333,7.3221661 5.83333333,7 C5.83333333,6.6778339 5.5721661,6.41666667 5.25,6.41666667 Z" id="Shape" fill="#FFFFFF" fill-rule="nonzero"></path>
                </g>
            </g>
        </g>
    </g>
</svg>