<?xml version="1.0" encoding="UTF-8"?>
<svg width="28px" height="28px" viewBox="0 0 28 28" version="1.1" xmlns="http://www.w3.org/2000/svg" xmlns:xlink="http://www.w3.org/1999/xlink">
    <title>Group 2</title>
    <g id="Listing-App-Designs" stroke="none" stroke-width="1" fill="none" fill-rule="evenodd">
        <g id="detail---massage" transform="translate(-20.000000, -288.000000)">
            <g id="Group-2" transform="translate(20.000000, 288.000000)">
                <circle id="bg" fill="#D63447" cx="14" cy="14" r="14"></circle>
                <g id="mdi:bed-queen-outline">
                    <rect id="ViewBox" x="0" y="0" width="28" height="28"></rect>
                    <path d="M19.6944444,11.9885057 L19.6944444,9.09195402 C19.6944444,8.02547313 18.9979985,7.16091954 18.1388889,7.16091954 L10.3611111,7.16091954 C9.5020015,7.16091954 8.80555556,8.02547313 8.80555556,9.09195402 L8.80555556,11.9885057 C7.94644594,11.9885057 7.25,12.8530593 7.25,13.9195402 L7.25,18.7471264 L8.28444444,18.7471264 L8.80555556,20.6781609 L9.58333333,20.6781609 L10.1044444,18.7471264 L18.3955556,18.7471264 L18.9166667,20.6781609 L19.6944444,20.6781609 L20.2155556,18.7471264 L21.25,18.7471264 L21.25,13.9195402 C21.25,12.8530593 20.5535541,11.9885057 19.6944444,11.9885057 M10.3611111,9.09195402 L18.1388889,9.09195402 L18.1388889,11.9885057 L10.3611111,11.9885057 M19.6944444,16.816092 L8.80555556,16.816092 L8.80555556,13.9195402 L19.6944444,13.9195402 L19.6944444,16.816092 Z" id="Shape" fill="#FFFFFF" fill-rule="nonzero"></path>
                </g>
            </g>
        </g>
    </g>
</svg>